<svg width="1363" height="1363" viewBox="0 0 1363 1363" fill="none" xmlns="http://www.w3.org/2000/svg">
<circle cx="681.5" cy="681.5" r="681.5" fill="#E7EFF3"/>
<path d="M843.651 967.949C802.08 947.995 769.239 916.678 758.015 903.514C754.273 914.184 744.712 939.182 736.398 953.815C726.005 972.106 707.298 996.633 690.254 1011.6C673.21 1026.56 618.336 1078.11 558.473 1068.14C498.611 1058.16 456.208 1027.81 436.254 990.398C416.3 952.984 413.805 915.57 423.367 876.909C431.016 845.98 449.833 811.087 458.286 797.507C448.725 799.725 420.872 801 385.953 788.362C342.303 772.565 316.113 748.869 301.147 718.522C286.182 688.175 280.777 634.548 285.766 585.494C290.755 536.44 320.686 477.825 389.694 482.814C444.901 486.804 503.045 518.288 525.216 533.53C518.704 491.544 509.585 396.262 525.216 351.033C544.755 294.496 592.561 282.44 651.177 284.103C709.792 285.766 743.049 315.697 764.666 350.617C781.96 378.553 784.343 437.917 783.373 464.107C799.17 448.586 843.568 416.715 894.784 413.39C958.804 409.233 989.566 420.457 1015.34 439.995C1041.11 459.534 1070.21 496.532 1076.87 534.778C1083.52 573.023 1074.37 597.134 1056.91 627.481C1042.94 651.759 1007.86 677.228 992.061 686.928C1001.62 694.411 1024.65 713.866 1040.28 731.825C1059.82 754.273 1078.11 794.598 1078.53 844.067C1078.94 893.537 1063.98 915.985 1051.09 937.602C1038.2 959.219 1011.6 992.476 966.702 996.218C921.805 999.959 895.615 992.892 843.651 967.949Z" fill="#DC8898"/>
<path d="M559.719 933.445C537.437 959.053 514.961 963.792 506.508 962.961C509.972 960.605 518.896 954.563 526.877 949.242C536.855 942.591 572.19 896.863 584.246 878.571C593.89 863.938 625.124 812.612 639.535 788.778L647.85 793.35C627.757 829.378 582.001 907.837 559.719 933.445Z" fill="#C57180"/>
<path d="M474.082 632.47C505.011 639.454 555.977 663.648 577.594 674.873L570.527 689.007C562.213 684.85 542.924 675.039 532.282 669.053C518.979 661.57 468.678 643.279 433.342 640.784C398.007 638.29 387.198 643.694 372.648 649.099C358.099 654.503 344.796 667.806 347.706 658.244C350.616 648.683 358.514 638.706 383.041 630.392C407.568 622.077 435.421 623.74 474.082 632.47Z" fill="#C57180"/>
<path d="M661.156 471.589C664.149 496.199 667.391 557.226 668.638 584.663H658.661C658.523 578.704 658.329 563.711 658.661 551.406C659.077 536.024 651.179 476.578 646.19 443.736C642.199 417.463 629.007 368.769 622.91 347.707C629.007 356.714 642.199 378.303 646.19 392.604C651.179 410.479 657.414 440.826 661.156 471.589Z" fill="#C57180"/>
<path d="M836.169 568.034C809.563 586.991 778.801 627.758 766.745 645.772L759.262 634.132C766.606 624.155 784.87 600.293 799.171 584.663C817.046 565.124 846.562 542.26 892.706 520.643C929.621 503.349 974.046 509.835 991.645 515.239C985.41 514.823 970.943 514.241 962.961 515.239C952.984 516.486 940.928 517.317 916.401 523.137C891.874 528.957 869.426 544.339 836.169 568.034Z" fill="#C57180"/>
<path d="M868.596 803.327C841.325 785.036 769.102 758.846 736.4 748.037L743.467 737.645C753.444 740.97 776.89 748.952 790.858 754.273C808.318 760.924 841.575 779.216 854.046 785.867C866.518 792.519 908.92 819.124 921.392 827.023C933.863 834.921 977.928 867.347 986.658 874.829C995.388 882.312 995.804 893.536 993.31 896.446C990.815 899.356 982.501 888.132 971.693 876.908C960.884 865.684 902.684 826.191 868.596 803.327Z" fill="#C57180"/>
<ellipse cx="671.962" cy="682.771" rx="111.826" ry="113.074" fill="#FBECB3"/>
</svg>
