<svg width="65" height="66" viewBox="0 0 65 66" fill="none" xmlns="http://www.w3.org/2000/svg">
<g clip-path="url(#clip0_312_8676)">
<path d="M38.5667 34.5399C38.5667 34.0999 38.5667 33.88 38.1334 33.66C36.6167 32.56 34.8834 31.46 33.3667 30.36C33.2064 30.2512 33.0178 30.1931 32.825 30.1931C32.6322 30.1931 32.4437 30.2512 32.2834 30.36L27.5167 33.8799C27.3177 33.983 27.1512 34.1408 27.0363 34.3353C26.9214 34.5298 26.8626 34.7532 26.8667 34.9799C26.8565 35.4542 26.7055 35.9143 26.4334 36.2999C26.3262 36.4628 26.269 36.6542 26.269 36.8499C26.269 37.0457 26.3262 37.2371 26.4334 37.3999C28.1667 40.9199 29.6834 44.4399 31.4167 47.9599C32.0667 49.0599 32.5 50.3799 33.15 51.6999C33.3667 51.4799 33.3667 51.26 33.5834 51.0399C35.5334 46.6399 37.2667 42.24 39.2167 37.84C39.4334 37.4 39.4334 37.1799 39 36.9599C38.7564 36.614 38.5912 36.2176 38.5163 35.7992C38.4414 35.3808 38.4586 34.9508 38.5667 34.5399Z" fill="#CD0124"/>
<path d="M31.2002 28.8201C26.8669 25.74 22.5335 22.66 18.4169 19.8L18.2002 20.02C18.4169 20.46 18.4169 20.68 18.6335 21.12L23.1835 31.0201C23.6169 31.9001 23.8335 32.78 25.1335 33C25.508 33.0343 25.8842 32.9579 26.2169 32.78C27.5169 31.68 29.0335 30.8 30.3335 29.7L31.2002 28.8201Z" fill="#CD0124"/>
<path d="M32.5 0C26.0721 0 19.7886 1.93542 14.444 5.5615C9.09938 9.18759 4.93378 14.3415 2.47393 20.3714C0.0140818 26.4014 -0.629527 33.0366 0.624493 39.438C1.87851 45.8394 4.97384 51.7194 9.51904 56.3345C14.0642 60.9496 19.8552 64.0926 26.1596 65.3659C32.464 66.6392 38.9986 65.9857 44.9372 63.488C50.8758 60.9903 55.9516 56.7606 59.5228 51.3338C63.0939 45.907 65 39.5268 65 33C65 24.2479 61.5759 15.8542 55.481 9.66548C49.3861 3.47678 41.1195 0 32.5 0V0ZM50.05 19.14C49.6167 19.14 49.4 19.36 49.1833 19.8C47.45 24.2 45.5 28.6 43.7667 33V33.88C43.9398 34.2519 44.0318 34.6574 44.0365 35.0687C44.0412 35.48 43.9584 35.8875 43.7939 36.2634C43.6294 36.6393 43.3869 36.9747 43.0831 37.2468C42.7793 37.5189 42.4212 37.7212 42.0333 37.84C41.8167 37.84 41.6 38.06 41.3833 38.5C39.4333 42.9 37.4833 47.52 35.75 51.92C35.6429 52.0828 35.5857 52.2742 35.5857 52.47C35.5857 52.6658 35.6429 52.8572 35.75 53.02C36.1549 53.5842 36.3352 54.2828 36.2548 54.9762C36.1745 55.6695 35.8395 56.3066 35.3167 56.76C34.8624 57.2156 34.2612 57.4889 33.6239 57.5293C32.9867 57.5697 32.3566 57.3746 31.85 56.98C31.5795 56.7924 31.348 56.5525 31.1689 56.274C30.9897 55.9955 30.8665 55.6838 30.8061 55.3569C30.7457 55.0299 30.7494 54.6941 30.817 54.3686C30.8846 54.0431 31.0148 53.7344 31.2 53.46C31.3062 53.2567 31.3618 53.0301 31.3618 52.8C31.3618 52.5699 31.3062 52.3433 31.2 52.14C29.0333 47.74 27.0833 43.34 24.9167 38.94C24.8181 38.7164 24.6683 38.5199 24.4799 38.3668C24.2915 38.2138 24.0698 38.1086 23.8333 38.06C23.3919 37.9854 22.9747 37.8035 22.6175 37.5297C22.2603 37.2559 21.9737 36.8984 21.7821 36.4877C21.5905 36.077 21.4996 35.6253 21.5173 35.1712C21.5349 34.7171 21.6605 34.2741 21.8833 33.88C21.9905 33.7172 22.0477 33.5258 22.0477 33.33C22.0477 33.1342 21.9905 32.9428 21.8833 32.78C19.9333 28.38 17.9833 24.2 15.8167 19.8C15.8167 19.58 15.6 19.36 14.95 19.36C14.3128 19.269 13.7266 18.9559 13.2918 18.4743C12.857 17.9926 12.6006 17.3725 12.5667 16.72C12.6067 16.1088 12.8092 15.5201 13.1526 15.0165C13.496 14.5129 13.9674 14.1132 14.5167 13.86C15.0998 13.6306 15.7435 13.615 16.3367 13.8158C16.93 14.0166 17.4357 14.4212 17.7667 14.96C17.9833 15.4 18.2 15.4 18.85 15.4H46.3667C46.8 15.4 47.2333 15.4 47.45 14.74C47.7456 14.2218 48.2127 13.8268 48.7681 13.6254C49.3235 13.424 49.9313 13.4292 50.4833 13.64C51.0215 13.8469 51.4907 14.205 51.8359 14.6724C52.1812 15.1399 52.3884 15.6975 52.4333 16.28C52.4414 16.9681 52.2049 17.6361 51.7671 18.1614C51.3293 18.6867 50.7197 19.0342 50.05 19.14Z" fill="#CD0124"/>
<path d="M32.4999 27.2799C32.6602 27.3886 32.8487 27.4467 33.0415 27.4467C33.2344 27.4467 33.4229 27.3886 33.5832 27.2799C37.6999 24.1999 41.8165 21.3399 45.7165 18.2599C45.9332 18.0399 46.1499 18.0399 46.1499 17.8199V17.5999H18.8499C19.0978 17.6922 19.3205 17.843 19.4999 18.0399L32.4999 27.2799Z" fill="#CD0124"/>
<path d="M34.6665 28.8202C36.3998 30.1402 38.1332 31.2402 39.8665 32.3402C40.2998 32.5602 40.9498 32.3402 41.5998 32.3402C41.8165 32.3402 42.0332 31.9002 42.0332 31.6802C43.5498 28.1602 45.0665 24.4202 46.5832 20.9002C46.5832 20.6802 46.7998 20.4602 46.7998 20.2402H46.5832C42.8998 22.8802 38.7832 25.7402 34.6665 28.8202Z" fill="#CD0124"/>
</g>
<defs>
<clipPath id="clip0_312_8676">
<rect width="65" height="66" fill="white"/>
</clipPath>
</defs>
</svg>
