<svg width="44" height="44" viewBox="0 0 44 44" fill="none" xmlns="http://www.w3.org/2000/svg">
<rect width="44" height="44" rx="22" fill="#EAEAEA"/>
<path d="M33.4155 14.5073L22.7782 8.36618C22.299 8.08888 21.7013 8.08888 21.2193 8.36618L10.582 14.5073C10.1001 14.7846 9.80127 15.3016 9.80127 15.8589V28.1412C9.80127 28.6958 10.1001 29.2127 10.582 29.4927L21.2193 35.634C21.4563 35.7713 21.7255 35.8413 22.0001 35.8413C22.2747 35.8413 22.544 35.7686 22.7809 35.634L33.4182 29.4927C33.9001 29.2154 34.199 28.6985 34.199 28.1412V15.8589C34.199 15.3042 33.9001 14.7873 33.4182 14.5073H33.4155ZM22.2397 21.2381C22.0917 21.3242 21.9059 21.3242 21.7578 21.2381L11.4167 15.2692L21.7578 9.30042C21.9032 9.21695 22.0943 9.21695 22.2397 9.30042L32.5809 15.2692L22.2397 21.2381ZM21.2193 22.1696C21.2947 22.2127 21.3755 22.2504 21.4617 22.28V34.5246L11.1205 28.5585C10.9724 28.4723 10.8782 28.3135 10.8782 28.1412V16.2008L21.2193 22.1696Z" fill="black"/>
</svg>
