<svg width="146" height="84" viewBox="0 0 146 84" fill="none" xmlns="http://www.w3.org/2000/svg">
<g clip-path="url(#clip0_3158_2317)">
<path d="M145.033 7.80958C143.054 3.06454 138.439 0 133.273 0H118.706C115.356 0 112.075 1.34968 109.708 3.70499L41.4411 71.5486C41.3372 71.6492 41.1748 71.6492 41.0763 71.5539L12.5552 43.6527C12.4593 43.5601 12.43 43.531 12.4966 43.3695C12.5632 43.2081 12.6058 43.2081 12.7389 43.2081L29.074 43.2848L45.2625 59.3301L54.0772 50.5704L37.8913 34.5278C35.4866 32.1355 32.2909 30.8202 28.8902 30.8202H12.7363C7.54334 30.8202 2.91766 33.9059 0.955001 38.6801C-1.01032 43.4542 0.113481 48.8767 3.81243 52.4864L32.3335 80.3903C34.7995 82.7985 38.0271 84 41.252 84C44.5169 84 47.7818 82.7694 50.2531 80.3109L118.709 12.3932H133.276C133.406 12.3932 133.449 12.3932 133.518 12.552C133.582 12.7134 133.555 12.7425 133.462 12.8351L74.9394 70.9823C74.8568 71.0696 74.6598 71.067 74.5719 70.9823L71.3603 67.7907L62.5456 76.5503L65.7573 79.7446C68.1646 82.1343 71.3576 83.4495 74.7556 83.4495C78.1537 83.4495 81.3546 82.1343 83.754 79.7446L142.266 21.5948C145.92 17.9639 147.001 12.5546 145.025 7.81224L145.033 7.80958Z" fill="url(#paint0_linear_3158_2317)"/>
</g>
<defs>
<linearGradient id="paint0_linear_3158_2317" x1="-0.0010288" y1="42.0013" x2="146.008" y2="42.0013" gradientUnits="userSpaceOnUse">
<stop stop-color="#8EE1D4"/>
<stop offset="0.336" stop-color="#52B8C4"/>
<stop offset="0.759" stop-color="#0282B0"/>
</linearGradient>
<clipPath id="clip0_3158_2317">
<rect width="146" height="84" fill="white"/>
</clipPath>
</defs>
</svg>
