<svg width="32" height="25" viewBox="0 0 32 25" fill="none" xmlns="http://www.w3.org/2000/svg">
<g clip-path="url(#clip0_3156_2002)">
<path d="M17.0987 13.2153C17.0926 12.463 17.3706 11.736 17.8772 11.1797C18.3838 10.6235 19.0816 10.2789 19.8313 10.2148H32.3691L28.297 12.9273H21.4722C21.0322 12.9291 20.6107 13.1046 20.2996 13.4158C19.9885 13.7269 19.8129 14.1483 19.8112 14.5883V21.373L17.1322 24.5945L17.0987 13.2153Z" fill="white"/>
<path d="M16.151 9.57851C15.4521 9.59524 14.7743 9.33806 14.2623 8.86187L5.21387 0.000976562L10.1366 0.965428L15.066 5.80108C15.3816 6.11073 15.806 6.2842 16.2482 6.2842C16.6903 6.2842 17.1147 6.11073 17.4303 5.80108L22.3731 0.972125L27.2824 0.000976562L18.4349 8.70783C17.8105 9.27544 16.9948 9.5864 16.151 9.57851Z" fill="white"/>
<path d="M12.5508 21.3657V14.5877C12.5508 14.1466 12.376 13.7234 12.0647 13.4108C11.7534 13.0983 11.3309 12.9218 10.8898 12.92H4.05824L-0.000488281 10.2075H12.2628C13.0376 10.2189 13.7812 10.5144 14.3524 11.038C14.6299 11.2742 14.8545 11.5664 15.0114 11.8953C15.1684 12.2242 15.2542 12.5825 15.2633 12.9468V24.5939L12.5508 21.3657Z" fill="white"/>
</g>
<defs>
<clipPath id="clip0_3156_2002">
<rect width="32" height="25" fill="white"/>
</clipPath>
</defs>
</svg>
