<svg xmlns:xlink="http://www.w3.org/1999/xlink" xmlns="http://www.w3.org/2000/svg" id="CIRCLE_OUTLINE_BLACK" viewBox="0 0 512 512" width="512"  height="512" ><script xmlns="" src="chrome-extension://hoklmmgfnpapgjgcpechhaamimifchmp/frame_ant/frame_ant.js"/><circle cx="256" cy="256" r="256" fill="#fff"/><path d="m253.00165,327.8083c106.2212-8.85179,153.00902-82.19497,153.00902-82.19497,0,0,67.65285-91.04668-32.24566-135.93778-99.89851-44.89111-257.33352,49.317-257.33352,49.317,0,0,69.54955-30.34895,149.84777-24.6585,80.29813,5.69036,90.41448,32.87797,94.84029,37.30387,4.42599,4.4258,24.02628,37.9361-20.23252,87.88533-44.25889,49.94923-107.48575,57.53647-133.40882,46.78789-25.92298-10.74858-59.16889-53.91797-8.8518-87.2531,50.58158-33.51029,94.20815-15.17448,94.20815-15.17448,0,0,32.24575,15.80671,1.89679,48.68477-30.34887,32.87788-80.29813,25.29073-81.56269,3.79357h57.5365s23.78945-34.24578-13.2777-36.03931c-39.20067-1.89679-56.27194,30.34886-56.27194,30.34886,0,0-17.7035,36.67164,35.4071,39.20065,53.1106,2.52911,90.41448-34.14243,92.31127-52.47825,1.89679-18.33582,8.21947-54.37513-61.33007-52.47834-69.54964,1.89679-151.74455,51.21379-173.24172,99.26624-21.49717,48.05236-20.96146,128.87574,101.7953,130.24733,113.17621,1.26456,194.10657-55.63959,194.10657-55.63959,0,0-146.68642,45.52325-213.07463,1.89679-66.38829-43.62655-17.07127-103.05981-17.07127-103.05981,0,0-13.2776,79.03354,92.94359,70.18184Zm.63223-97.36945c16.43895,2.52911,9.48403,16.43903,9.48403,16.43903l-42.36201.63223s16.43895-19.60028,32.87799-17.07126Z" fill="#57b8e5"/></svg>