<svg width="1080" height="1080" viewBox="0 0 1080 1080" fill="none" xmlns="http://www.w3.org/2000/svg">
<path d="M226.297 659.055V462.93H205.402L224.536 416H325.267L322.45 462.93H274.198V515.859H317.519L314.702 562.789H274.198V616.07H325.267L323.127 651.718C290.727 653.714 258.448 656.162 226.297 659.055Z" fill="#171717"/>
<path fill-rule="evenodd" clip-rule="evenodd" d="M874.25 661.631L838.174 416H756.109L736.975 462.93H758.574L731.152 650.607C746.897 651.49 762.613 652.481 778.3 653.576L782.172 627.714H821.62L826.042 657.246C842.143 658.596 858.212 660.058 874.25 661.631ZM801.896 492.57L814.928 580.784H788.865L801.896 492.57Z" fill="#171717"/>
<path d="M715.343 649.756V416H667.443V523.269H648.071V416H598.41L579.275 462.93V416H466.216L457.586 462.93H498.972V645.364C511.49 645.229 524.024 645.161 536.574 645.161C540.008 645.161 543.441 645.166 546.872 645.176V462.93H579.275H600.171V645.741C616.165 646.032 632.132 646.435 648.071 646.945V570.199H667.443V647.62C683.438 648.223 699.405 648.935 715.343 649.756Z" fill="#171717"/>
<path fill-rule="evenodd" clip-rule="evenodd" d="M463.034 645.936L446.019 585.724C453.767 577.961 457.642 565.023 457.642 546.91V466.459C457.642 448.58 453.65 435.76 445.667 427.997C437.918 419.999 425.004 416 406.924 416H342.47L323.336 462.93H344.231V650.482C360.169 649.598 376.136 648.823 392.131 648.158V597.369H401.641L415.564 647.263C431.361 646.714 447.184 646.271 463.034 645.936ZM407.98 462.93H392.131V550.439H407.98C409.154 550.439 409.742 549.851 409.742 548.674V464.694C409.742 463.518 409.154 462.93 407.98 462.93Z" fill="#171717"/>
</svg>
