<svg width="44" height="44" viewBox="0 0 44 44" fill="none" xmlns="http://www.w3.org/2000/svg">
<path d="M0 22C0 9.84974 9.84974 0 22 0C34.1503 0 44 9.84974 44 22C44 34.1503 34.1503 44 22 44C9.84974 44 0 34.1503 0 22Z" fill="#627EEA"/>
<path d="M22.498 10V18.87L29.995 22.22L22.498 10Z" fill="white" fill-opacity="0.602"/>
<path d="M22.498 10L15 22.22L22.498 18.87V10Z" fill="white"/>
<path d="M22.498 27.968V33.995L30 23.616L22.498 27.968Z" fill="white" fill-opacity="0.602"/>
<path d="M22.498 33.995V27.967L15 23.616L22.498 33.995Z" fill="white"/>
<path d="M22.498 26.5729L29.995 22.2199L22.498 18.8719V26.5729Z" fill="white" fill-opacity="0.2"/>
<path d="M15 22.2199L22.498 26.5729V18.8719L15 22.2199Z" fill="white" fill-opacity="0.602"/>
</svg>
