<svg width="759" height="759" viewBox="0 0 759 759" fill="none" xmlns="http://www.w3.org/2000/svg">
<circle cx="379.5" cy="379.5" r="379.5" fill="black"/>
<path fill-rule="evenodd" clip-rule="evenodd" d="M411.303 483.051H470.131V404.956H641.429V354.63H470.131V332.069H641.869V276.536H443.741C439.709 276.536 435.811 277.548 432.065 279.573C428.32 281.308 424.851 283.767 421.679 286.949C418.507 290.13 415.918 293.746 413.902 297.795C412.162 301.844 411.303 305.894 411.303 309.943V483.051ZM470.131 491.293H411.303C405.818 491.293 403.086 488.546 403.086 483.051V309.943C403.086 304.737 404.232 299.675 406.545 294.758C409.144 289.841 412.316 285.502 416.061 281.742C420.093 277.693 424.421 274.512 429.036 272.198C433.938 269.595 438.839 268.293 443.741 268.293H641.869C647.343 268.293 650.086 271.041 650.086 276.536V332.069C650.086 337.565 647.343 340.313 641.869 340.313H478.348V346.386H641.429C646.914 346.386 649.656 349.134 649.656 354.63V404.956C649.656 410.452 646.914 413.2 641.429 413.2H478.348V483.051C478.348 488.546 475.616 491.293 470.131 491.293Z" fill="#3BFE00"/>
<path fill-rule="evenodd" clip-rule="evenodd" d="M210.766 408.811H308.398V423.603H176.206V333.549H373.198C375.789 333.549 377.086 332.244 377.086 329.634V272.208C377.086 269.598 375.789 268.293 373.198 268.293H145.102C140.494 268.293 135.886 269.453 131.278 271.773C126.958 273.804 122.926 276.704 119.182 280.474C115.726 283.954 112.846 288.015 110.542 292.655C108.238 297.296 107.086 301.936 107.086 306.577V451.01C107.086 455.94 108.238 460.726 110.542 465.366C112.846 469.716 115.726 473.777 119.182 477.547C122.926 481.028 126.958 483.927 131.278 486.248C135.886 488.278 140.494 489.293 145.102 489.293H339.502C344.11 489.293 348.574 488.278 352.893 486.248C357.502 483.927 361.533 481.028 364.99 477.547C368.734 473.777 371.614 469.716 373.63 465.366C375.933 460.726 377.086 455.94 377.086 451.01V387.059C377.086 382.418 375.933 377.778 373.63 373.137C371.614 368.497 368.734 364.292 364.99 360.522C361.533 356.751 357.502 353.851 352.893 351.821C348.574 349.5 344.11 348.34 339.502 348.34H210.766C208.174 348.34 206.878 349.79 206.878 352.691V404.895C206.878 407.506 208.174 408.811 210.766 408.811Z" fill="#3BFE00"/>
</svg>
