<svg width="2000" height="2000" viewBox="0 0 2000 2000" fill="none" xmlns="http://www.w3.org/2000/svg">
<rect width="2000" height="2000" rx="1000" fill="black"/>
<circle cx="999.833" cy="989.815" r="798.366" stroke="white" stroke-width="69.4231"/>
<path d="M1079.54 795.102C1022.28 834.621 960.707 848.163 894.939 835.65C829.059 823.214 776.727 788.782 737.833 732.428L679.958 648.575L762.979 591.275L820.853 675.129C843.879 708.49 874.61 728.712 913.159 735.717C951.596 742.8 987.801 734.618 1021.55 711.326L1168.01 609.607C1214.56 577.278 1278.52 588.904 1310.71 635.549L1079.54 795.102Z" fill="white"/>
<path d="M1191.62 1073.72C1152.03 1016.35 1138.39 954.717 1150.78 888.926C1163.09 823.024 1197.4 770.718 1253.65 731.897L1337.35 674.132L1394.75 757.309L1311.06 815.075C1277.76 838.056 1257.61 868.773 1250.67 907.336C1243.66 945.786 1251.9 982.03 1275.24 1015.84L1377.37 1162.9C1409.64 1209.36 1398.04 1273.2 1351.48 1305.33L1191.62 1073.72Z" fill="white"/>
<path d="M911.95 1186.37C969.21 1146.85 1030.78 1133.31 1096.55 1145.82C1162.43 1158.26 1214.76 1192.69 1253.65 1249.05L1311.53 1332.9L1228.51 1390.2L1170.63 1306.35C1147.61 1272.98 1116.88 1252.76 1078.33 1245.76C1039.89 1238.67 1003.69 1246.86 969.938 1270.15L823.476 1371.87C776.926 1404.2 712.97 1392.57 680.776 1345.93L911.95 1186.37Z" fill="white"/>
<path d="M804.88 915.013C844.475 972.38 858.116 1034.02 845.727 1099.81C833.416 1165.71 799.099 1218.01 742.853 1256.84L659.157 1314.6L601.75 1231.42L685.445 1173.66C718.743 1150.68 738.897 1119.96 745.829 1081.4C752.84 1042.95 744.599 1006.7 721.263 972.891L619.132 825.832C586.864 779.37 598.469 715.534 645.025 683.401L804.88 915.013Z" fill="white"/>
</svg>
