<svg width="92" height="84" viewBox="0 0 92 84" fill="none" xmlns="http://www.w3.org/2000/svg">
<g clip-path="url(#clip0_3158_2214)">
<path fill-rule="evenodd" clip-rule="evenodd" d="M84.4518 38.2728C84.6274 39.754 84.725 41.2644 84.725 42.7992C84.725 63.619 67.8268 80.5018 46.9773 80.5018C31.7962 80.5018 18.7128 71.5512 12.7174 58.6442L18.7567 55.6087C23.6349 66.3134 34.4353 73.7535 46.9773 73.7535C64.0901 73.7535 77.9687 59.8965 77.9687 42.7992C77.9687 42.4825 77.9638 42.1658 77.954 41.8491L84.4518 38.2728ZM46.9773 5.09668C62.8754 5.09668 76.4808 14.9145 82.042 28.8155L75.5832 30.8716C70.9099 19.6992 59.8607 11.8449 46.9773 11.8449C29.8644 11.8449 15.9859 25.702 15.9859 42.7992C15.9859 43.0087 15.9907 43.2231 15.9956 43.4326L9.67341 48.5974C9.38072 46.7069 9.22949 44.7726 9.22949 42.7992C9.23437 21.9746 26.1326 5.09668 46.9773 5.09668Z" fill="#010E35"/>
<path fill-rule="evenodd" clip-rule="evenodd" d="M4.92676 57.874L41.8452 27.7139L40.3135 40.2554L61.8606 28.0598L60.7679 39.9679L89.0324 30.9784L50.6992 52.0661L53.5628 40.0654L31.4156 53.0308L32.8791 43.8269L4.92676 57.874Z" fill="#010E35"/>
</g>
<defs>
<clipPath id="clip0_3158_2214">
<rect width="92" height="84" fill="white"/>
</clipPath>
</defs>
</svg>
