<svg width="642" height="642" viewBox="0 0 642 642" fill="none" xmlns="http://www.w3.org/2000/svg">
<g clip-path="url(#clip0_3155_1950)">
<path d="M0 321C0 498.283 143.717 642 321 642C498.283 642 642 498.283 642 321C642 143.717 498.283 0 321 0C143.717 0 0 143.717 0 321Z" fill="black"/>
<path d="M10.0312 321C10.0312 492.743 149.257 631.969 321 631.969C492.743 631.969 631.969 492.743 631.969 321C631.969 149.257 492.743 10.0312 321 10.0312C149.257 10.0313 10.0312 149.257 10.0312 321Z" stroke="white" stroke-opacity="0.12"/>
<path d="M216.695 455.82H423.72C461.779 455.82 485.914 414.752 466.754 381.569L338.996 160.119C330.65 145.654 309.765 145.654 301.419 160.119L173.621 381.569C154.501 414.712 178.616 455.82 216.655 455.82H216.695ZM339.096 226.526L366.923 280.373L434.072 400.447C438.506 408.131 433.029 417.982 423.76 417.982H339.136V226.506L339.096 226.526ZM206.403 400.488L273.512 280.353L301.339 226.526V418.022H216.715C207.446 418.022 201.969 408.172 206.403 400.488Z" fill="white"/>
</g>
<defs>
<clipPath id="clip0_3155_1950">
<rect width="642" height="642" fill="white"/>
</clipPath>
</defs>
</svg>
