<svg width="2481" height="494" viewBox="0 0 2481 494" fill="none" xmlns="http://www.w3.org/2000/svg">
<path d="M1.545 170.097C0.637255 177.378 0.119758 184.783 0.0179551 192.301C-1.41577 299.865 83.1908 388.42 189.905 389.894C277.846 391.109 352.247 332.959 376.17 251.619C355.538 251.917 333.914 253.992 312.391 259.85C295.975 264.316 282.249 274.674 268.497 285.05L265.748 287.12C263.551 288.772 261.345 290.415 259.131 292.023C257.528 293.186 255.916 294.331 254.287 295.451C236.183 307.923 214.406 314.979 190.906 314.65C127.068 313.768 78.406 260.576 79.3053 193.399C79.3901 186.824 79.9585 180.386 80.985 174.114C81.3074 172.484 81.6637 170.854 82.0539 169.228L82.5799 167.114C83.1568 164.892 83.7931 162.675 84.4887 160.465C84.7093 159.743 84.9468 159.021 85.1844 158.304C85.4983 157.361 85.8291 156.419 86.1685 155.485C108.853 92.4019 172.938 60.4193 232.883 82.8132C254.949 91.0531 272.815 105.566 285.362 123.801C287.271 126.568 289.112 129.395 290.928 132.244L294.991 138.685C304.204 153.384 313.401 168.053 327.178 178.195C345.231 191.493 364.709 201.302 383.873 209.083C390.007 124.397 340.87 43.01 258.291 12.1601C158.092 -25.2783 48.0434 26.6685 11.7168 127.67C7.93311 138.188 5.09961 148.823 3.17384 159.48C2.53757 162.981 1.99462 166.526 1.545 170.097Z" fill="black"/>
<path d="M117.583 180.996C117.295 182.587 117.057 184.199 116.862 185.825C116.557 188.462 116.37 191.147 116.336 193.866C116.328 194.545 116.361 195.215 116.404 195.885L116.455 197.095C116.794 209.351 119.908 220.916 125.303 231.14C133.354 246.375 146.3 258.601 162.054 265.578C171.063 269.556 180.981 271.847 191.398 271.989C192.247 271.998 193.087 271.998 193.918 271.985L195.318 271.942L196.234 271.899L198.177 271.773C199.076 271.704 199.975 271.622 200.875 271.523L203.233 271.216L205.015 270.935C206.406 270.693 207.772 270.42 209.129 270.113C213.184 269.188 217.121 267.939 220.913 266.395C236.836 259.854 250.105 248.005 258.563 232.99C260.03 230.388 261.345 227.682 262.499 224.893C262.83 224.089 263.152 223.281 263.458 222.464L264.094 220.73C264.679 219.04 265.214 217.323 265.689 215.585C266.266 213.467 266.749 211.31 267.148 209.122C268.684 200.588 268.769 192.011 267.488 183.707C264.841 166.604 256.603 150.708 244.014 138.806C241.01 135.983 237.778 133.385 234.308 131.046L232.866 130.091L232.077 129.594L230.906 128.876C230.151 128.422 229.388 127.981 228.616 127.553L227.089 126.728C224.315 125.271 221.413 123.974 218.402 122.845C214.957 121.557 211.479 120.541 207.992 119.785C201.562 118.393 195.097 117.878 188.743 118.159C171.589 118.946 155.208 125.66 142.355 136.96C133.736 144.548 126.779 154.218 122.164 165.545L121.689 166.656L121.579 166.916C121.35 167.443 121.121 167.975 120.926 168.519C120.484 169.752 120.077 170.988 119.695 172.229C119.136 174.075 118.652 175.925 118.236 177.775L117.939 179.176L117.583 180.996Z" fill="black"/>
<path d="M1300.34 380.712H1238.87V198.764H1208.91V136.818H1238.87V125.206C1238.87 110.179 1241.68 96.0549 1247.31 82.8477C1252.95 69.6405 1260.68 58.1367 1270.52 48.3448C1280.35 38.5572 1291.79 30.8144 1304.86 25.1208C1317.93 19.4273 1331.89 16.5826 1346.75 16.5826H1392.92V78.5246H1346.75C1340.14 78.5246 1334.02 79.7005 1328.39 82.0523C1322.77 84.4127 1317.87 87.668 1313.75 91.8442C1312.48 93.1238 1311.3 94.477 1310.19 95.8993C1308.8 97.6848 1307.55 99.5783 1306.42 101.584C1305.9 102.505 1305.41 103.452 1304.94 104.425C1304.59 105.151 1304.26 105.89 1303.95 106.642C1303.12 108.605 1302.43 110.628 1301.89 112.712C1300.86 116.663 1300.34 120.827 1300.34 125.206V136.818H1375.8V198.764H1300.34V380.712Z" fill="black"/>
<path d="M477.498 151.988C488.136 140.449 514.732 129.866 536.968 129.866C604.166 129.866 656.866 186.607 656.866 255.894C656.866 326.124 602.24 383.358 535.517 383.358C515.207 383.358 490.563 376.147 477.498 360.752V494H408.849V253.499C440.959 257.005 466.495 266.858 476.836 280.489L476.853 280.415C477.752 281.6 478.711 282.741 479.704 283.818C480.094 284.246 481.672 286.641 482.088 287.401C491.504 304.755 509.048 315.541 530.206 315.541C561.621 315.541 587.25 291.016 587.25 256.383C587.25 222.23 555.046 197.839 534.27 197.839C520.408 197.839 507.284 202.041 492.7 211.941C478.109 221.841 443.097 223.985 408.849 216.243V135.153H477.498V151.988Z" fill="black"/>
<path fill-rule="evenodd" clip-rule="evenodd" d="M920.204 330.724C899.453 361.18 856.509 380.712 813.082 380.712C739.733 380.712 680.874 324.062 680.874 255.527C680.874 186.032 737.324 129.866 807.296 129.866C867.606 129.866 913.934 169.851 928.891 214.587L792.823 310.725C799.084 313.115 805.846 313.582 813.082 313.582C833.833 313.582 854.575 306.445 865.68 289.317L920.204 330.724ZM752.289 271.22L841.069 208.863C835.538 204.773 829.54 201.626 822.974 199.681C818.07 198.232 812.861 197.45 807.296 197.45C775.932 197.45 750.363 221.729 750.363 255.514C750.363 261.238 750.83 266.473 752.289 271.22Z" fill="black"/>
<path d="M1192.91 380.712H1126.42V258.194C1126.42 218.815 1104.25 198.894 1076.91 198.894C1047.19 198.894 1019.85 218.815 1019.85 258.194V380.708H952.891V135.214H1019.85V152.226C1033.05 136.675 1060.88 129.866 1082.56 129.866C1147.65 129.866 1192.91 187.23 1192.91 258.207V380.712Z" fill="black"/>
<path fill-rule="evenodd" clip-rule="evenodd" d="M1617.97 376.143H1632.94V131.608H1617.97L1593.94 160.664C1588.19 155.165 1582.04 150.064 1575.46 145.33C1568.89 140.614 1561.97 136.494 1554.72 132.983C1547.47 129.477 1539.99 126.732 1532.28 124.748C1528.37 123.745 1524.45 122.997 1520.52 122.504C1516.67 122.02 1512.81 121.778 1508.93 121.778C1491.84 121.778 1475.79 124.938 1460.76 131.267C1445.72 137.6 1432.56 146.48 1421.3 157.919C1410.04 169.345 1401.16 183.037 1394.67 198.976C1388.17 214.911 1384.92 232.415 1384.92 251.476C1384.92 271.899 1388.17 290.121 1394.67 306.138C1401.16 322.159 1410.04 335.691 1421.3 346.745C1432.56 357.817 1445.72 366.23 1460.76 372.023C1475.79 377.816 1491.84 380.712 1508.93 380.712C1516.79 380.712 1524.52 379.722 1532.16 377.738C1536.81 376.54 1541.39 375.062 1545.9 373.315C1547.41 372.727 1548.91 372.109 1550.41 371.465L1552.73 370.432L1554.49 369.619C1557.89 368.011 1561.21 366.273 1564.46 364.397C1568.14 362.27 1571.74 359.974 1575.24 357.505C1579.05 354.804 1582.76 351.985 1586.36 349.045C1587.75 347.912 1589.12 346.758 1590.47 345.591L1592.1 344.164L1593.94 342.517L1617.97 376.143ZM1565.73 226.67C1568.96 234.681 1570.59 242.942 1570.59 251.489C1570.59 260.032 1568.96 268.31 1565.73 276.295C1562.48 284.315 1558.05 291.396 1552.47 297.578C1550.29 299.995 1547.95 302.225 1545.48 304.27C1544.55 305.031 1543.61 305.762 1542.65 306.471C1541.12 307.603 1539.52 308.671 1537.88 309.674C1536.25 310.664 1534.57 311.589 1532.85 312.45C1525.36 316.185 1517.4 318.052 1508.94 318.052C1500.46 318.052 1492.5 316.604 1485.02 313.703C1477.52 310.811 1471.03 306.536 1465.51 300.89C1460 295.248 1455.65 288.279 1452.48 279.957C1449.31 271.661 1447.71 262.167 1447.71 251.489C1447.71 240.828 1449.31 231.339 1452.48 223.017C1455.65 214.699 1460 207.735 1465.51 202.084C1471.03 196.443 1477.53 192.158 1485.02 189.27C1489.5 187.541 1494.14 186.322 1498.97 185.622C1502.21 185.155 1505.54 184.921 1508.94 184.921C1512.49 184.921 1515.95 185.25 1519.33 185.907C1520.04 186.045 1520.75 186.197 1521.45 186.365C1522.01 186.495 1522.57 186.638 1523.12 186.789C1526.46 187.701 1529.7 188.942 1532.85 190.52C1540.33 194.268 1546.86 199.218 1552.47 205.4C1558.05 211.574 1562.46 218.664 1565.73 226.67Z" fill="black"/>
<path fill-rule="evenodd" clip-rule="evenodd" d="M1919.22 303.868C1925.7 287.968 1928.96 270.386 1928.96 251.126C1928.96 232.32 1925.7 214.997 1919.22 199.175C1912.72 183.352 1903.87 169.63 1892.69 158.006C1881.51 146.385 1868.39 137.328 1853.36 130.822C1838.31 124.324 1822.17 121.077 1804.95 121.077C1799.37 121.077 1793.62 121.648 1787.72 122.798C1781.83 123.944 1776.12 125.586 1770.6 127.726C1765.09 129.875 1759.96 132.62 1755.19 135.983C1751.81 138.374 1748.78 140.994 1746.13 143.843C1745.04 145.006 1744.02 146.208 1743.06 147.448V32.7642H1680.94V251.126C1680.94 270.074 1684.2 287.471 1690.7 303.298C1694.09 311.581 1698.15 319.263 1702.85 326.349C1707.13 332.807 1711.97 338.769 1717.33 344.242C1728.58 355.716 1741.73 364.647 1756.78 371.08C1771.81 377.5 1787.87 380.712 1804.95 380.712C1822.18 380.712 1838.31 377.565 1853.36 371.305C1868.39 365.041 1881.51 356.213 1892.69 344.817C1897.74 339.677 1902.31 334.078 1906.4 328.017C1911.38 320.651 1915.66 312.601 1919.22 303.868ZM1861.74 224.629C1863.21 228.334 1864.35 232.173 1865.15 236.142C1866.13 240.945 1866.61 245.938 1866.61 251.126C1866.61 260.607 1864.98 269.4 1861.74 277.514C1858.5 285.629 1854.07 292.65 1848.49 298.62C1844.66 302.718 1840.38 306.216 1835.66 309.121C1833.49 310.448 1831.24 311.65 1828.88 312.731C1821.39 316.172 1813.43 317.897 1804.96 317.897C1796.49 317.897 1788.52 316.172 1781.05 312.731C1773.56 309.289 1767.02 304.595 1761.43 298.62C1755.84 292.65 1751.46 285.629 1748.29 277.514C1745.12 269.4 1743.52 260.615 1743.52 251.135C1743.52 242.575 1745.12 234.279 1748.29 226.246C1750.49 220.674 1753.27 215.542 1756.65 210.852C1758.13 208.789 1759.73 206.809 1761.43 204.916C1767.02 198.717 1773.56 193.754 1781.05 190.01C1785.64 187.71 1790.4 186.115 1795.36 185.224C1798.49 184.662 1801.69 184.381 1804.96 184.381C1813.43 184.381 1821.4 186.067 1828.88 189.435C1836.35 192.794 1842.89 197.454 1848.49 203.416C1852.07 207.242 1855.17 211.53 1857.8 216.273C1859.27 218.919 1860.58 221.703 1861.74 224.629Z" fill="black"/>
<path d="M2021.55 380.712H1960.97V137.959H1975.62L1995.59 166.747C1998.11 164.408 2000.71 162.208 2003.41 160.145C2006.61 157.699 2009.93 155.451 2013.38 153.393C2018.29 150.462 2023.46 147.924 2028.87 145.78C2041.3 140.873 2054.17 138.413 2067.49 138.413H2120.97V200.07H2067.49C2061.12 200.07 2055.13 201.272 2049.52 203.697C2043.88 206.113 2039.01 209.438 2034.87 213.666C2030.72 217.898 2027.47 222.883 2025.1 228.624C2022.72 234.374 2021.55 240.491 2021.55 246.989V380.712Z" fill="black"/>
<path d="M2221.83 83.0207C2223.92 77.941 2224.98 72.4895 2224.98 66.6446C2224.98 60.964 2223.92 55.5385 2221.83 50.381C2219.71 45.2321 2216.85 40.7749 2213.21 37.0095C2209.59 33.244 2205.34 30.2481 2200.47 28.0174C2198.11 26.9409 2195.67 26.1195 2193.15 25.5661C2192.5 25.4235 2191.85 25.2981 2191.18 25.1857C2189.96 24.9825 2188.72 24.8398 2187.48 24.7577C2186.62 24.7015 2185.76 24.6756 2184.88 24.6756C2179.35 24.6756 2174.16 25.7909 2169.28 28.0174C2164.41 30.2481 2160.19 33.244 2156.64 37.0095C2153.07 40.7749 2150.25 45.2321 2148.14 50.381C2146.04 55.5385 2144.98 60.9554 2144.98 66.6446C2144.98 68.309 2145.07 69.9432 2145.24 71.5427C2145.42 73.2201 2145.69 74.8672 2146.05 76.4754C2146.56 78.7235 2147.26 80.9066 2148.14 83.0207C2150.23 88.0917 2153.07 92.51 2156.64 96.2754C2160.19 100.041 2164.41 103.041 2169.28 105.268C2174.15 107.498 2179.35 108.614 2184.88 108.614C2190.4 108.614 2195.59 107.498 2200.47 105.268C2205.32 103.045 2209.58 100.041 2213.21 96.2754C2215.1 94.3214 2216.78 92.1944 2218.25 89.8901C2219.61 87.7502 2220.81 85.4632 2221.83 83.0207Z" fill="black"/>
<path d="M2214.74 380.712H2154.78V133.748H2214.74V380.712Z" fill="black"/>
<path d="M2435.98 225.857L2481 179.894C2475.6 170.582 2469.18 162.346 2461.75 155.165C2454.32 148.002 2446.21 141.941 2437.43 136.986C2428.65 132.028 2419.43 128.258 2409.74 125.664C2400.07 123.07 2390.18 121.778 2380.14 121.778C2363.17 121.778 2347.24 125.284 2332.29 132.296C2317.36 139.312 2304.3 148.879 2293.12 161.006C2281.93 173.128 2273.12 187.36 2266.67 203.667C2260.22 219.982 2256.98 237.521 2256.98 256.275C2256.98 273.511 2260.22 289.675 2266.67 304.776C2273.12 319.868 2281.93 333.071 2293.12 344.346C2304.3 355.629 2317.36 364.513 2332.29 370.994C2347.23 377.474 2363.17 380.712 2380.14 380.712C2384.13 380.712 2388.09 380.526 2392 380.15C2396.45 379.726 2400.86 379.056 2405.22 378.148C2406.67 377.846 2408.1 377.517 2409.53 377.163C2411.58 376.653 2413.62 376.095 2415.63 375.481L2418.25 374.651C2419.78 374.145 2421.3 373.609 2422.81 373.043C2425.75 371.936 2428.64 370.713 2431.49 369.377C2433.26 368.547 2435.02 367.669 2436.75 366.748C2439.11 365.499 2441.42 364.18 2443.68 362.784C2447.05 360.713 2450.31 358.478 2453.49 356.079C2456.01 354.172 2458.46 352.162 2460.85 350.052C2468.27 343.499 2474.83 336.102 2480.54 327.862L2435.51 281.889C2433.11 287.375 2430 292.373 2426.18 296.878C2422.35 301.37 2417.99 305.195 2413.11 308.308C2410.74 309.83 2408.28 311.183 2405.74 312.363C2403.07 313.604 2400.31 314.659 2397.47 315.519C2391.92 317.197 2386.14 318.035 2380.14 318.035C2376.43 318.035 2372.82 317.724 2369.3 317.101L2367.3 316.712L2365.55 316.31C2362.41 315.541 2359.35 314.516 2356.39 313.232C2350.87 310.859 2345.9 307.815 2341.46 304.097C2340.53 303.319 2339.62 302.507 2338.74 301.668C2338.15 301.114 2337.58 300.544 2337.01 299.96C2331.54 294.31 2327.24 287.76 2324.08 280.277C2322.54 276.637 2321.37 272.871 2320.58 268.976C2319.76 264.882 2319.35 260.646 2319.35 256.271C2319.35 250.962 2319.74 245.886 2320.55 241.044C2321.34 236.289 2322.52 231.758 2324.08 227.448C2327.24 218.754 2331.54 211.245 2337.01 204.92C2339.92 201.557 2343.11 198.591 2346.57 196.023C2349.62 193.762 2352.9 191.808 2356.39 190.165C2363.82 186.659 2371.73 184.913 2380.14 184.913C2382.87 184.913 2385.58 185.103 2388.26 185.483C2391.45 185.937 2394.59 186.664 2397.7 187.658C2401.21 188.778 2404.56 190.217 2407.75 191.981C2409.76 193.083 2411.69 194.311 2413.57 195.669C2418.45 199.175 2422.84 203.476 2426.74 208.591C2427.59 209.693 2428.39 210.83 2429.15 211.993C2429.69 212.814 2430.22 213.653 2430.72 214.505C2432.8 218.032 2434.56 221.815 2435.98 225.857Z" fill="black"/>
</svg>
