<svg xmlns="http://www.w3.org/2000/svg" xmlns:xlink="http://www.w3.org/1999/xlink" id="Main" viewBox="0 0 346.59 300.59" width="346.59"  height="300.59" >
  <defs>
    <style>
      .cls-1 {
        fill: none;
      }

      .cls-2 {
        fill: url(#linear-gradient-3);
      }

      .cls-3 {
        fill: url(#linear-gradient-2);
      }

      .cls-4 {
        fill: url(#linear-gradient);
      }

      .cls-5 {
        opacity: 0;
      }
    </style>
    <linearGradient id="linear-gradient" x1="29.55" y1="104.68" x2="84.01" y2="50.23" gradientUnits="userSpaceOnUse">
      <stop offset="0" stop-color="#fff"/>
      <stop offset=".45" stop-color="#fff" stop-opacity=".99"/>
      <stop offset=".61" stop-color="#fff" stop-opacity=".97"/>
      <stop offset=".72" stop-color="#fff" stop-opacity=".92"/>
      <stop offset=".82" stop-color="#fff" stop-opacity=".85"/>
      <stop offset=".9" stop-color="#fff" stop-opacity=".77"/>
      <stop offset=".97" stop-color="#fff" stop-opacity=".66"/>
      <stop offset="1" stop-color="#fff" stop-opacity=".6"/>
    </linearGradient>
    <linearGradient id="linear-gradient-2" x1="85.29" y1="260.4" x2="261.3" y2="84.38" gradientUnits="userSpaceOnUse">
      <stop offset="0" stop-color="#fff"/>
      <stop offset=".27" stop-color="#fff" stop-opacity=".99"/>
      <stop offset=".44" stop-color="#fff" stop-opacity=".96"/>
      <stop offset=".58" stop-color="#fff" stop-opacity=".9"/>
      <stop offset=".7" stop-color="#fff" stop-opacity=".82"/>
      <stop offset=".81" stop-color="#fff" stop-opacity=".72"/>
      <stop offset=".91" stop-color="#fff" stop-opacity=".59"/>
      <stop offset="1" stop-color="#fff" stop-opacity=".45"/>
    </linearGradient>
    <linearGradient id="linear-gradient-3" x1="136.1" y1="263.39" x2="210.49" y2="189.01" xlink:href="#linear-gradient-2"/>
  </defs>
  <g class="cls-5">
    <path class="cls-4" d="M85.1,54.64v30.07l-37.76,37.76V54.64c0-4.42,3.59-8.01,8.01-8.01h21.73c4.42,0,8.01,3.59,8.01,8.01Z"/>
  </g>
  <path class="cls-3" d="M317.69,203.96l26.98-26.93c2.57-2.56,2.57-6.72,0-9.29L179.54,2.61c-1.63-1.63-3.92-2.61-6.21-2.61s-4.57.98-6.21,2.61l-91.49,91.42-9.15,9.15L1.92,167.75c-2.56,2.56-2.56,6.72,0,9.28l26.92,26.92c2.56,2.56,6.72,2.56,9.28,0L169.78,72.36c1.92-1.92,5.04-1.92,6.96,0l131.66,131.6c2.56,2.56,6.72,2.56,9.28,0Z"/>
  <g>
    <path class="cls-2" d="M219.4,236.25c-3.63,12.19-11.45,23.15-19.21,33.37-8.19,10.77-17.24,21.24-26.9,30.96-9.66-9.73-18.71-20.19-26.9-30.96-7.76-10.22-15.57-21.18-19.21-33.37-5.6-18.84.8-40.94,15.51-53.68.55-.48,1.12-.94,1.7-1.4s1.17-.89,1.77-1.31c.6-.42,1.21-.83,1.83-1.22s1.25-.77,1.89-1.13c.64-.36,1.29-.71,1.94-1.04s1.32-.65,2-.95c11.15-4.98,24.22-5.43,35.7-1.3.7.25,1.39.52,2.07.8.68.28,1.36.58,2.03.9s1.33.64,1.98.99c.65.35,1.29.71,1.92,1.08.63.38,1.25.77,1.87,1.17s1.22.83,1.81,1.27,1.17.89,1.74,1.35c.32.26.63.52.94.79,14.71,12.74,21.12,34.84,15.51,53.68Z"/>
    <path class="cls-1" d="M173.3,171.31c-.18,0-.31,0-.49.06"/>
    <path class="cls-1" d="M173.79,171.37c-.18-.06-.31-.06-.49-.06"/>
  </g>
</svg>