<svg width="68" height="68" viewBox="0 0 68 68" fill="none" xmlns="http://www.w3.org/2000/svg">
<circle cx="34" cy="34" r="34" fill="#EDF0F4"/>
<path d="M47.6231 24.0948C46.8407 19.7034 43.0611 16.685 37.4643 15.982C36.557 15.868 34.6864 15.8306 33.6618 15.9059C28.7115 16.2698 23.9753 18.3431 20.8449 21.5166C18.5407 23.8526 17.5449 26.6414 18.4856 28.1245C18.9 28.7781 19.5079 29.0529 20.5397 29.0529C21.2162 29.0529 21.71 28.892 22.2241 28.5042C22.9112 27.9859 23.3252 27.4073 24.6764 25.0765C26.1999 22.4482 27.783 21.1197 30.4079 20.2665C32.019 19.7428 33.8766 19.5338 35.7498 19.6654C37.4291 19.7834 38.3391 20.0003 39.4231 20.541C40.1258 20.8914 40.4848 21.1476 40.9897 21.6583C42.4089 23.094 42.7944 25.3623 42.0133 27.6811C41.4816 29.2593 40.5264 30.726 39.1914 32.0138C37.1563 33.9769 34.5499 35.0995 32.2047 35.0228L31.4869 34.9994L32.1927 33.485C33.721 30.2061 34.5612 28.0055 34.6357 27.0867C34.6729 26.6279 34.6547 26.5094 34.4929 26.1558C34.3407 25.8236 34.2485 25.7222 33.9795 25.5919C33.2537 25.2406 32.606 25.48 31.6251 26.462C30.8475 27.2403 30.3736 27.8369 29.5081 29.1267C28.3178 30.9007 27.3971 32.4892 24.7766 37.2893C24.0669 38.5894 22.668 41.149 21.668 42.9773C19.4283 47.0722 19.1823 47.5601 19.0386 48.1917C18.8058 49.2154 18.9284 50.2265 19.3572 50.8185C20.0481 51.7722 21.5775 51.9995 22.7048 51.316C23.216 51.0062 24.0104 50.1693 24.5324 49.391C25.4031 48.0927 26.509 45.4616 28.1443 40.7981C28.4321 39.9772 28.8201 39.0026 28.8863 38.9341C28.9152 38.9043 29.1309 39.4527 29.3658 40.1529C30.9726 44.942 32.9747 48.3077 35.2125 49.982C36.393 50.8651 37.4744 51.232 38.8833 51.2272C41.8966 51.2169 45.1606 49.6428 48.1684 46.7496C49.2296 45.7288 49.7752 44.6888 49.712 43.8073C49.6257 42.6059 48.2924 42.3142 47.3226 43.2847C47.1626 43.4449 46.7771 43.8591 46.4661 44.2054C45.7463 45.0064 44.823 45.7017 43.7445 46.2546C42.2067 47.0428 41.2979 47.2532 39.6152 47.2105C38.6849 47.1869 38.4907 47.1605 38.2026 47.019C36.6599 46.2614 34.9369 43.502 34.0211 40.3225C33.88 39.8324 33.7455 39.2935 33.7223 39.1247L33.6801 38.8179L34.1139 38.7335C36.9199 38.1873 40.5215 36.4954 42.895 34.6081C43.6618 33.9984 44.879 32.7901 45.403 32.1184C46.5584 30.6372 47.328 29.0315 47.6197 27.4936C47.7681 26.7118 47.7698 24.9182 47.6231 24.0948Z" fill="#681BFF"/>
</svg>
