<svg width="275" height="276" viewBox="0 0 275 276" fill="none" xmlns="http://www.w3.org/2000/svg">
<path fill-rule="evenodd" clip-rule="evenodd" d="M274.75 138.764C274.75 62.9515 213.267 1.53076 137.375 1.53076C61.4843 1.53076 0 62.9515 0 138.764C0 214.576 61.4843 275.997 137.375 275.997C213.267 275.997 274.75 214.531 274.75 138.764ZM193.934 68.9404H133.751C131.148 68.9404 129.011 71.0758 129.011 73.6757V127.018C129.011 133.332 123.247 138.718 116.555 138.718H70.6396C68.6877 138.718 67.0147 139.832 66.2246 141.642C65.4811 143.453 65.8529 145.449 67.2471 146.842L127.616 207.149C128.546 208.077 129.661 208.542 130.962 208.542H187.38C189.333 208.542 191.005 207.427 191.796 205.616C192.539 203.806 192.168 201.81 190.773 200.417L131.52 141.271L130.405 140.157L128.963 138.764H129.382C165.91 138.532 196.025 109.98 198.674 74.0936C198.766 72.7472 198.348 71.4937 197.418 70.5188C196.489 69.451 195.328 68.9404 193.934 68.9404ZM137.375 13.555C206.62 13.555 262.714 69.5904 262.714 138.764C262.714 207.891 206.62 263.973 137.375 263.973C68.1766 263.973 12.0366 207.938 12.0366 138.764C12.0366 69.5904 68.1301 13.555 137.375 13.555Z" fill="#040114"/>
</svg>
