<svg width="1363" height="1363" viewBox="0 0 1363 1363" fill="none" xmlns="http://www.w3.org/2000/svg">
<circle cx="681.5" cy="681.5" r="681.5" fill="black"/>
<path fill-rule="evenodd" clip-rule="evenodd" d="M895.47 775.728C898.536 797.909 904.585 814.478 913.583 825.456C930.056 845.443 958.264 855.432 998.227 855.432C1022.16 855.432 1041.6 852.801 1056.53 847.53C1084.85 837.425 1099.01 818.652 1099.01 791.211C1099.01 775.174 1091.99 762.769 1077.94 753.984C1063.89 745.423 1041.82 737.852 1011.73 731.26L960.351 719.739C909.845 708.313 874.94 695.907 855.613 682.512C822.901 660.118 806.534 625.095 806.534 577.443C806.534 533.966 822.347 497.846 853.962 469.085C885.588 440.324 932.026 425.938 993.286 425.938C1044.45 425.938 1088.09 439.493 1124.21 466.615C1160.34 493.736 1179.27 533.093 1181.03 584.695H1083.53C1081.77 555.486 1069.04 534.743 1045.33 522.444C1029.52 514.32 1009.87 510.252 986.375 510.252C960.244 510.252 939.384 515.523 923.795 526.065C908.205 536.607 900.411 551.312 900.411 570.203C900.411 587.549 908.088 600.508 923.464 609.069C933.346 614.777 954.419 621.475 986.705 629.163L1070.36 649.246C1107.03 658.031 1134.7 669.776 1153.36 684.492C1182.35 707.333 1196.84 740.375 1196.84 783.629C1196.84 827.991 1179.88 864.824 1145.95 894.139C1112.03 923.454 1064.11 938.106 1002.18 938.106C938.947 938.106 889.208 923.667 852.982 894.788C816.746 865.92 798.633 826.234 798.633 775.728H895.47Z" fill="white"/>
<path fill-rule="evenodd" clip-rule="evenodd" d="M298.156 276.859V1086.14H1000.95V1011.6H383.344V351.398H1000.95V276.859H298.156Z" fill="white"/>
</svg>
