<?xml version="1.0" encoding="UTF-8"?><svg version="1.1" width="860px" height="1150px" viewBox="0 0 860.0 1150.0" xmlns="http://www.w3.org/2000/svg" xmlns:xlink="http://www.w3.org/1999/xlink"><defs><clipPath id="i0"><path d="M860,0 L860,1150 L0,1150 L0,0 L860,0 Z"></path></clipPath><clipPath id="i1"><path d="M280.077619,12.4403681 L487.535512,219.523498 C503.963164,235.919464 504.152521,262.387627 488.104164,279.01677 L487.535714,279.592834 L339.203008,427.659574 L487.535714,575.726315 C503.962652,592.122993 504.151825,618.591165 488.103355,635.2202 L487.536122,635.79626 L280.087865,842.878172 C263.47055,859.466141 236.528559,859.466141 219.911244,842.878172 L12.4629864,635.79626 C-4.15432881,619.20829 -4.15432881,592.313877 12.4629864,575.725908 L160.791261,427.659574 L12.4629864,279.593241 C-4.15348014,263.0049 -4.15375339,236.110957 12.4623761,219.52228 L219.900997,12.4415866 C236.517975,-4.14671967 263.459966,-4.1472652 280.077619,12.4403681 Z M248.811142,516.710329 L174.676206,590.743496 C166.521622,598.886476 166.373357,611.997193 174.231213,620.321015 L174.676415,620.778463 L233.762793,679.782091 C242.069568,688.07306 255.533649,688.073807 263.841346,679.78376 L322.944199,620.776795 C331.101442,612.636471 331.251379,599.525802 323.394565,591.200999 L322.946078,590.743496 L248.811142,516.710329 Z M234.225841,175.087255 L233.767747,175.532111 L174.676415,234.540686 C166.371494,242.83481 166.37112,256.281694 174.67558,264.576279 L248.818573,338.623662 L322.942333,264.590902 C331.244819,256.29531 331.244581,242.849375 322.9418,234.554077 L263.843861,175.532878 C255.690129,167.389047 242.561398,167.240495 234.225841,175.087255 Z"></path></clipPath><linearGradient id="i2" x1="250px" y1="855.319149px" x2="250px" y2="0px" gradientUnits="userSpaceOnUse"><stop stop-color="#A439E9" offset="0%"></stop><stop stop-color="#48F1FE" offset="100%"></stop></linearGradient><clipPath id="i3"><path d="M267.957197,0 L380.177256,92.2841797 L187.596416,269.455017 L0,269.257208 L112.578624,154.84375 L267.957197,0 Z"></path></clipPath><linearGradient id="i4" x1="179.227061px" y1="230.211914px" x2="257.626475px" y2="85.8222656px" gradientUnits="userSpaceOnUse"><stop stop-color="#1DB8F1" offset="0%"></stop><stop stop-color="#405379" offset="100%"></stop></linearGradient><clipPath id="i5"><path d="M136.472323,0 L245.632813,112.34668 C306.834688,173.425508 342.331775,208.851228 352.124075,218.623841 L352.779809,219.278257 C352.983816,219.481853 353.17325,219.670906 353.348113,219.845417 L353.828984,220.325322 C353.974703,220.470748 354.10585,220.601631 354.222425,220.717972 L354.648652,221.143342 C354.685082,221.179699 354.717869,221.21242 354.747013,221.241505 L354.878159,221.372388 C354.907303,221.401473 354.921875,221.416016 354.921875,221.416016 C374.886719,239.500977 385.422852,247.217523 387.664062,269.455017 L216.672546,269.455017 C189.073843,241.339165 166.520152,218.520263 149.011473,200.998311 L146.086793,198.073799 C132.025434,184.025099 121.441165,173.627127 114.333984,166.879883 C90.7636454,144.503241 79.7333984,129.711914 56.1115424,126.865234 C40.3636383,124.967448 21.6597909,130.036458 0,142.072266 L136.472323,0 Z"></path></clipPath><linearGradient id="i6" x1="166.343561px" y1="6.73099119e-14px" x2="276.200488px" y2="244.140007px" gradientUnits="userSpaceOnUse"><stop stop-color="#48F0FD" offset="0%"></stop><stop stop-color="#148DA5" offset="100%"></stop></linearGradient><clipPath id="i7"><path d="M166.435293,0 L356.692672,0.00618408018 L89.173168,267.158448 L0,180.411594 L79.265142,74.0883243 L166.435293,0 Z"></path></clipPath><linearGradient id="i8" x1="144.206908px" y1="156.647195px" x2="178.346336px" y2="-2.9660546e-14px" gradientUnits="userSpaceOnUse"><stop stop-color="#620992" offset="0%"></stop><stop stop-color="#BA69E6" offset="100%"></stop></linearGradient><clipPath id="i9"><path d="M193.861854,0 L536.170213,359.574468 L343.028313,359.568225 L0,0.0112367021 L193.861854,0 Z"></path></clipPath><linearGradient id="i10" x1="365.599028px" y1="359.574468px" x2="162.813975px" y2="-6.38732566e-13px" gradientUnits="userSpaceOnUse"><stop stop-color="#BA69E6" offset="0%"></stop><stop stop-color="#1DB8F1" offset="100%"></stop></linearGradient><clipPath id="i11"><path d="M193.148936,0 L267.629215,87.1374789 C267.629215,87.1374789 305.839801,126.357584 308.644318,128.744557 C321.478553,139.741683 338.182071,146.395843 356.43045,146.395843 C374.540981,146.395843 393.59455,142.288081 406.382979,131.442509 L267.629318,270.468085 L0,0 L193.148936,0 Z"></path></clipPath><linearGradient id="i12" x1="139.05868px" y1="-9.83281681e-14px" x2="288.495299px" y2="227.55946px" gradientUnits="userSpaceOnUse"><stop stop-color="#A33BE9" offset="0%"></stop><stop stop-color="#A33AE9" offset="100%"></stop></linearGradient><clipPath id="i13"><path d="M173.542618,0 L269.148936,95.4337334 L190.788333,182.978723 L0,182.978723 L173.542618,0 Z"></path></clipPath><linearGradient id="i14" x1="171.674441px" y1="181.269093px" x2="215.744827px" y2="44.5572903px" gradientUnits="userSpaceOnUse"><stop stop-color="#A33BE9" offset="0%"></stop><stop stop-color="#5C418B" offset="100%"></stop></linearGradient><clipPath id="i15"><path d="M274.468085,0 L90.351638,180.659574 L0,91.6236616 L76.5560783,0 L274.468085,0 Z"></path></clipPath><linearGradient id="i16" x1="44.1496071px" y1="152.955074px" x2="102.77846px" y2="2.00572419e-14px" gradientUnits="userSpaceOnUse"><stop stop-color="#47446E" offset="0%"></stop><stop stop-color="#148DA5" offset="100%"></stop></linearGradient><clipPath id="i17"><path d="M83.4628906,0 C66.03125,57.1167719 90.9015959,103.874584 121.964844,142.124584 C153.028092,180.374584 461.758792,526.46252 449.035156,520.148936 C416.415503,503.962768 267.949947,355.396238 264.894198,351.752882 C260.266516,346.235318 229.329549,314.164943 176.877199,262.702128 C162.326337,248.425773 146.98535,233.483202 131.556582,218.450179 L127.530156,214.526847 C77.1864918,165.469017 26.5588313,115.981746 0,86.0288813 C0,86.0288813 63.1464844,12.1103502 83.4628906,0 Z"></path></clipPath><linearGradient id="i18" x1="27.3046875px" y1="65.2144282px" x2="224.708824px" y2="260.117126px" gradientUnits="userSpaceOnUse"><stop stop-color="#FFFFFF" offset="0%"></stop><stop stop-color="rgba(255, 255, 255, 0)" offset="100%"></stop></linearGradient><clipPath id="i19"><path d="M0,0 C0,0 146.099291,145.692207 438.297872,437.076622 C398.31295,477.018482 372.922525,502.381562 362.126596,513.165864 L361.272124,514.019417 C360.86132,514.429778 360.475164,514.815518 360.113656,515.176636 L359.103078,516.186126 C358.790867,516.498 358.503305,516.785254 358.24039,517.047885 L357.747425,517.540319 C357.517375,517.770121 357.311973,517.975302 357.131219,518.155861 L356.802576,518.48415 C356.75328,518.533394 356.706722,518.579901 356.662903,518.623673 L356.268531,519.01762 C356.224712,519.061392 356.191847,519.094221 356.169938,519.116107 L356.137074,519.148936 C377.521624,459.602052 312.081749,393.191497 301.848926,380.991837 C291.616104,368.792176 47.3491875,89.6092153 0,0 Z"></path></clipPath><linearGradient id="i20" x1="219.148936px" y1="234.963903px" x2="438.297872px" y2="447.66904px" gradientUnits="userSpaceOnUse"><stop stop-color="rgba(255, 255, 255, 0)" offset="0%"></stop><stop stop-color="#FFFFFF" offset="100%"></stop></linearGradient><clipPath id="i21"><path d="M88.9783243,0 C82.3466988,22.6697268 61.706652,62.5593533 76.4938583,91.2573504 C91.2810647,119.955348 240.424397,254.28959 254.238864,272.237071 C269.55155,292.131007 273.976744,320.119657 267.514446,356.203019 L0,89.0507547 C37.964085,51.055766 63.7796628,25.2191737 77.4467335,11.5409778 L78.69243,10.2942672 C79.0957984,9.89057048 79.487303,9.49874716 79.8669439,9.11879728 L81.4952472,7.48916847 C81.8392967,7.14483888 82.1714825,6.81238273 82.4918044,6.49180001 L83.8531728,5.12932347 C83.9955381,4.98684226 84.1349375,4.84732941 84.2713709,4.71078492 L85.4191913,3.56203019 C85.7751046,3.20582717 86.1043244,2.87633938 86.4068507,2.57356681 L87.2343491,1.74539479 C87.4834884,1.49605268 87.7059342,1.27342579 87.9016866,1.07751413 L88.2575999,0.721311113 C88.7380828,0.240437038 88.9783243,0 88.9783243,0 Z"></path></clipPath><linearGradient id="i22" x1="-90.7463576px" y1="-172.657231px" x2="260.23883px" y2="356.203019px" gradientUnits="userSpaceOnUse"><stop stop-color="rgba(255, 255, 255, 0)" offset="0%"></stop><stop stop-color="rgba(255, 255, 255, 0.6)" offset="100%"></stop></linearGradient><clipPath id="i23"><path d="M14.2967679,5.40486568 C36.9403226,32.8726391 231.227547,221.964312 245.803604,238.842366 C271.077692,268.107991 250.580567,307.160531 184.312227,355.999987 C207.6639,306.387745 206.852432,269.313069 181.877823,244.775959 C144.415909,207.970295 46.9246976,109.0826 22.0370023,86.011311 C-2.85069303,62.9400219 -8.34678678,-22.0629078 14.2967679,5.40486568 Z"></path></clipPath><linearGradient id="i24" x1="-86.0072959px" y1="-172.558818px" x2="246.648336px" y2="355.999987px" gradientUnits="userSpaceOnUse"><stop stop-color="rgba(255, 255, 255, 0)" offset="0%"></stop><stop stop-color="rgba(255, 255, 255, 0.6)" offset="100%"></stop></linearGradient></defs><g clip-path="url(#i0)"><g transform="translate(180.0 147.0000000000004)"><g clip-path="url(#i1)"><polygon points="1.77635684e-15,0 500,0 500,855.319149 1.77635684e-15,855.319149 1.77635684e-15,0" stroke="none" fill="url(#i2)"></polygon><g transform="translate(-19.148936170212778 -22.44921875)"><g clip-path="url(#i3)"><polygon points="19.1489362,22.4492188 380.177256,22.4492188 380.177256,269.455017 19.1489362,269.455017 19.1489362,22.4492188" stroke="none" fill="url(#i4)"></polygon></g></g><g transform="translate(112.3359375 -22.44921875)"><g clip-path="url(#i5)"><polygon points="0,22.4492188 387.664062,22.4492188 387.664062,269.455017 0,269.455017 0,22.4492188" stroke="none" fill="url(#i6)"></polygon></g></g><g transform="translate(159.637974325085 605.7548997135914)"><g clip-path="url(#i7)"><polygon points="0,0 340.362026,0 340.362026,249.564249 0,249.564249 0,0" stroke="none" fill="url(#i8)"></polygon></g></g><g transform="translate(-19.148936170212778 246.8085106382978)"><g clip-path="url(#i9)"><polygon points="19.1489362,0 519.148936,0 519.148936,359.574468 19.1489362,359.574468 19.1489362,0" stroke="none" fill="url(#i10)"></polygon></g></g><g transform="translate(-19.14893617021289 604.0)"><g clip-path="url(#i11)"><polygon points="19.1489362,0 406.382979,0 406.382979,251.319149 19.1489362,251.319149 19.1489362,0" stroke="none" fill="url(#i12)"></polygon></g></g><g transform="translate(-19.148936170212778 421.2765957446809)"><g clip-path="url(#i13)"><polygon points="19.1489362,0 269.148936,0 269.148936,182.978723 19.1489362,182.978723 19.1489362,0" stroke="none" fill="url(#i14)"></polygon></g></g><g transform="translate(248.93617021276623 246.99999999999994)"><g clip-path="url(#i15)"><polygon points="0,0 251.06383,0 251.06383,180.659574 0,180.659574 0,0" stroke="none" fill="url(#i16)"></polygon></g></g><g transform="translate(-16.0859375 164.9574468085102)"><g clip-path="url(#i17)"><polygon points="16.0859375,0 449.417649,0 449.417649,520.234252 16.0859375,520.234252 16.0859375,0" stroke="none" fill="url(#i18)" opacity="60%" style="mix-blend-mode:overlay"></polygon></g></g><g transform="translate(82.9787234042553 165.9574468085106)"><g clip-path="url(#i19)"><polygon points="0,0 417.021277,0 417.021277,519.148936 0,519.148936 0,0" stroke="none" fill="url(#i20)" opacity="60%" style="mix-blend-mode:overlay"></polygon></g></g><g transform="translate(-18.70836176377462 516.7103291378952)"><g clip-path="url(#i21)"><polygon points="18.7083618,0 270.391231,0 270.391231,338.60882 18.7083618,338.60882 18.7083618,0" stroke="none" fill="url(#i22)" opacity="80%" style="mix-blend-mode:overlay"></polygon></g></g><g transform="translate(244.21690396733212 -17.232014118255393)"><g clip-path="url(#i23)"><polygon points="3.55271368e-15,17.2320141 255.783096,17.2320141 255.783096,355.999987 3.55271368e-15,355.999987 3.55271368e-15,17.2320141" stroke="none" fill="url(#i24)" opacity="80%" style="mix-blend-mode:overlay"></polygon></g></g></g></g></g></svg>