<svg width="45" height="45" viewBox="0 0 45 45" fill="none" xmlns="http://www.w3.org/2000/svg">
<g clip-path="url(#clip0_3158_2387)">
<path d="M22.5 45C34.9264 45 45 34.9264 45 22.5C45 10.0736 34.9264 0 22.5 0C10.0736 0 0 10.0736 0 22.5C0 34.9264 10.0736 45 22.5 45Z" fill="url(#paint0_linear_3158_2387)"/>
<mask id="mask0_3158_2387" style="mask-type:alpha" maskUnits="userSpaceOnUse" x="0" y="0" width="45" height="45">
<path d="M22.5 45C34.9264 45 45 34.9264 45 22.5C45 10.0736 34.9264 0 22.5 0C10.0736 0 0 10.0736 0 22.5C0 34.9264 10.0736 45 22.5 45Z" fill="white"/>
</mask>
<g mask="url(#mask0_3158_2387)">
<path d="M22.0254 -5.37109V10.3064" stroke="white" stroke-width="0.789865"/>
<path d="M19.7031 -5.37109V10.3064" stroke="white" stroke-width="0.789865"/>
<path d="M25.0742 -5.37109V10.3064" stroke="white" stroke-width="0.789865"/>
<path d="M12.1943 -2.31742L17.2776 7.16375V-3.62939" stroke="white" stroke-width="0.789865"/>
<path d="M32.5187 -2.60747L27.4355 6.87371V-3.91943" stroke="white" stroke-width="0.789865"/>
<path d="M22.8301 52.403V36.7256" stroke="white" stroke-width="0.789865"/>
<path d="M25.1533 52.403V36.7256" stroke="white" stroke-width="0.789865"/>
<path d="M19.7822 52.403V36.7256" stroke="white" stroke-width="0.789865"/>
<path d="M32.8088 49.5457L27.7256 40.0645V50.8577" stroke="white" stroke-width="0.789865"/>
<path d="M12.1934 49.6907L17.2767 40.2095V51.0027" stroke="white" stroke-width="0.789865"/>
<path d="M-6.45898 23.9189H9.21844" stroke="white" stroke-width="0.789865"/>
<path d="M-6.45898 26.2412H9.21844" stroke="white" stroke-width="0.789865"/>
<path d="M-6.45898 20.8706H9.21844" stroke="white" stroke-width="0.789865"/>
<path d="M-3.76811 33.8249L5.71306 28.7417H-5.08008" stroke="white" stroke-width="0.789865"/>
<path d="M-2.75152 13.79L6.72965 18.8732H-4.06348" stroke="white" stroke-width="0.789865"/>
<path d="M51.3151 23.1133H35.6377" stroke="white" stroke-width="0.789865"/>
<path d="M51.3151 20.7905H35.6377" stroke="white" stroke-width="0.789865"/>
<path d="M51.3151 26.1616H35.6377" stroke="white" stroke-width="0.789865"/>
<path d="M48.0945 13.2095L38.6133 18.2928H49.4064" stroke="white" stroke-width="0.789865"/>
<path d="M48.6754 33.68L39.1943 28.5967H49.9874" stroke="white" stroke-width="0.789865"/>
<path d="M2.28613 44.2267L13.3718 33.1411" stroke="white" stroke-width="0.789865"/>
<path d="M3.92871 45.8693L15.0144 34.7837" stroke="white" stroke-width="0.789865"/>
<path d="M0.129883 42.0714L11.2155 30.9858" stroke="white" stroke-width="0.789865"/>
<path d="M11.7798 49.3465L14.8897 39.0479L7.25781 46.6798" stroke="white" stroke-width="0.789865"/>
<path d="M-3.28223 34.4296L7.01635 31.3198L-0.615546 38.9517" stroke="white" stroke-width="0.789865"/>
<path d="M42.57 2.80469L31.4844 13.8903" stroke="white" stroke-width="0.789865"/>
<path d="M40.9274 1.1626L29.8418 12.2482" stroke="white" stroke-width="0.789865"/>
<path d="M44.7253 4.96045L33.6396 16.0461" stroke="white" stroke-width="0.789865"/>
<path d="M33.4155 -1.97607L30.3057 8.32251L37.9376 0.690608" stroke="white" stroke-width="0.789865"/>
<path d="M48.0417 12.3605L37.7432 15.4703L45.3751 7.83838" stroke="white" stroke-width="0.789865"/>
<path d="M43.1383 43.6574L32.0527 32.5718" stroke="white" stroke-width="0.789865"/>
<path d="M44.7809 42.0153L33.6953 30.9297" stroke="white" stroke-width="0.789865"/>
<path d="M40.9821 45.8131L29.8965 34.7275" stroke="white" stroke-width="0.789865"/>
<path d="M48.3308 34.4297L38.0322 31.3198L45.6641 38.9517" stroke="white" stroke-width="0.789865"/>
<path d="M33.559 49.2019L30.4492 38.9033L38.0811 46.5352" stroke="white" stroke-width="0.789865"/>
<path d="M1.7168 3.37451L12.8024 14.4601" stroke="white" stroke-width="0.789865"/>
<path d="M0.0742188 5.0166L11.1598 16.1022" stroke="white" stroke-width="0.789865"/>
<path d="M3.87207 1.21875L14.9577 12.3044" stroke="white" stroke-width="0.789865"/>
<path d="M-2.55664 13.0865L7.74195 16.1963L0.110046 8.56445" stroke="white" stroke-width="0.789865"/>
<path d="M11.6344 -1.54053L14.7442 8.75806L7.1123 1.12616" stroke="white" stroke-width="0.789865"/>
</g>
<path d="M22.4281 37.9354C30.9127 37.9354 37.7908 31.0572 37.7908 22.5727C37.7908 14.0881 30.9127 7.20996 22.4281 7.20996C13.9435 7.20996 7.06543 14.0881 7.06543 22.5727C7.06543 31.0572 13.9435 37.9354 22.4281 37.9354Z" fill="#F8BA3A" stroke="white" stroke-width="0.677027"/>
<mask id="mask1_3158_2387" style="mask-type:alpha" maskUnits="userSpaceOnUse" x="6" y="6" width="33" height="33">
<path d="M22.5727 37.9354C31.0572 37.9354 37.9354 31.0572 37.9354 22.5727C37.9354 14.0881 31.0572 7.20996 22.5727 7.20996C14.0881 7.20996 7.20996 14.0881 7.20996 22.5727C7.20996 31.0572 14.0881 37.9354 22.5727 37.9354Z" fill="white" stroke="white" stroke-width="0.677027"/>
</mask>
<g mask="url(#mask1_3158_2387)">
<path fill-rule="evenodd" clip-rule="evenodd" d="M23.2989 6.53223L21.2666 22.8629H23.2989L22.5005 37.9257L37.3114 35.2742L39.9988 14.5946L33.4713 8.85481L23.2989 6.53223Z" fill="white"/>
</g>
<path d="M8.20815 20.5279C8.5578 23.3756 10.4103 26.3384 13.2572 25.9888C22.9195 24.8024 21.5619 18.5934 21.4317 16.5824C22.131 22.2778 26.4566 24.3681 33.7033 23.4783C35.86 23.2135 36.7436 18.9983 36.5048 17.0535C36.2063 14.6226 29.77 14.2672 21.7469 15.2523C13.7237 16.2374 7.77108 16.9683 8.20815 20.5279Z" fill="#01C1AE" stroke="#01C1AE" stroke-width="1.24122" stroke-linecap="round" stroke-linejoin="round"/>
<path d="M22.6632 32.3439C26.0295 32.0693 28.5548 29.3516 28.3037 26.2739L16.1133 27.2685C16.3644 30.3462 19.2969 32.6186 22.6632 32.3439Z" fill="white" stroke="#FE9D51" stroke-width="0.564189" stroke-linejoin="round"/>
<path d="M24.2422 29.0322H27.5809" stroke="#FE9A54" stroke-width="0.451351" stroke-linecap="round" stroke-linejoin="round"/>
<path d="M26.0567 22.137C23.4438 21.1499 22.4035 18.5322 22.21 17.3467C22.21 15.7499 24.0245 15.5322 28.4519 15.5322C32.8793 15.5322 35.5648 15.8951 35.7825 17.0564C36.0003 19.0887 35.2745 22.137 34.2584 22.6451C33.2422 23.1532 29.3229 23.3709 26.0567 22.137Z" fill="black" stroke="black" stroke-width="0.112838"/>
<path d="M18.3717 23.4984C20.4685 22.1165 21.5573 19.4517 20.9041 17.2017C20.532 15.9202 18.4893 16.2345 14.6621 16.8388C11.2508 17.3774 8.63797 18.871 8.9283 20.1775C9.07338 22.3181 10.7246 24.5788 11.6863 24.9678C12.648 25.3568 15.7508 25.2258 18.3717 23.4984Z" fill="black" stroke="black" stroke-width="0.112838"/>
<path d="M36.5078 10.4517L37.782 13.8953L41.2255 15.1695L37.782 16.4437L36.5078 19.8872L35.2336 16.4437L31.79 15.1695L35.2336 13.8953L36.5078 10.4517Z" fill="white"/>
</g>
<defs>
<linearGradient id="paint0_linear_3158_2387" x1="22.5" y1="0" x2="22.5" y2="45" gradientUnits="userSpaceOnUse">
<stop stop-color="#F5B745"/>
<stop offset="1" stop-color="#FC8B47"/>
</linearGradient>
<clipPath id="clip0_3158_2387">
<rect width="45" height="45" fill="white"/>
</clipPath>
</defs>
</svg>
