<svg xmlns="http://www.w3.org/2000/svg" width="24" height="24" viewBox="0 0 24 24"><g fill="#BA8318"><path d="M12.742 6.857a2.3 2.3 0 0 1 1.83.891c-.72.129-.857.789-.857 1.235v5.798c0 1.466-1.213 2.267-2.456 2.357a2 2 0 0 1-1.83-.943c.647-.3.857-.77.857-1.165V8.983c0-1.235 1.264-2.109 2.456-2.126"/><path d="M8.336 8.858c.334 0 .69.172.827.258c-.908-.159-1.89.325-1.937 1.47c-.047 1.148.797 1.615 1.517 1.662a1.3 1.3 0 0 0 1.11-.514c.137 2.871-2.134 3.441-3.111 3.497c-.982.056-3.446-.823-3.309-3.368c.112-2.04 1.286-2.773 1.805-2.889c-.472.596-.58.797-.686 1.543c-.086.591.128 1.243.231 1.457c-.051-.497-.094-.733 0-1.127c.429-1.731 1.577-2.186 2.1-2.199a2.4 2.4 0 0 0-.771 1.569a2.15 2.15 0 0 0 .63 1.646a2.6 2.6 0 0 1-.3-1.277c.266-1.646 1.47-1.728 1.894-1.728m7.329 0c-.335 0-.69.172-.827.258c.908-.159 1.894.325 1.937 1.47c.047 1.148-.797 1.615-1.513 1.662a1.3 1.3 0 0 1-1.114-.514c-.138 2.871 2.134 3.441 3.115 3.497c.977.056 3.442-.823 3.3-3.368c-.107-2.04-1.285-2.773-1.8-2.889c.472.596.579.797.686 1.543c.086.591-.129 1.243-.232 1.457c.052-.497.095-.733 0-1.127c-.428-1.731-1.577-2.186-2.1-2.199a2.4 2.4 0 0 1 .772 1.569a2.15 2.15 0 0 1-.626 1.646c.287-.583.317-1.093.296-1.277c-.266-1.646-1.47-1.728-1.894-1.728"/></g></svg>