<svg width="1227" height="1227" viewBox="0 0 1227 1227" fill="none" xmlns="http://www.w3.org/2000/svg">
<path fill-rule="evenodd" clip-rule="evenodd" d="M613.5 1227C276.075 1227 0 950.931 0 610.445C3.0675 273.027 276.075 -3.04212 616.568 0.0253173C953.993 3.09275 1227 276.095 1227 619.648C1223.93 953.998 950.925 1227 613.5 1227" fill="#EDF0F4"/>
<path fill-rule="evenodd" clip-rule="evenodd" d="M599.385 307.884C585.721 311.313 578.739 317.944 571.736 334.14C569.258 339.868 560.131 359.137 551.452 376.961L535.67 409.366L535.715 416.928C535.79 429.307 543.939 446.068 556.595 459.874C562.769 466.609 576.621 476.254 585.318 479.872C613.461 491.584 649.791 479.344 669.55 451.494C679.969 436.81 684.71 423.233 683.889 410.435C683.432 403.322 682.49 400.933 669.61 374.228C662.025 358.501 654.078 341.26 651.951 335.913C648.654 327.627 647.035 325.146 640.989 319.11C634.624 312.754 633.066 311.788 625.795 309.677C614.722 306.461 607.109 305.945 599.385 307.884ZM685.892 465.843C677.061 478.15 669.998 488.707 670.196 489.301C670.519 490.27 735.378 521.226 740.47 522.843C742.446 523.469 742.477 523.311 741.033 519.906C737.914 512.549 703.105 443.394 702.538 443.429C702.214 443.448 694.723 453.534 685.892 465.843ZM501.374 480.899C485.177 515.229 483.537 519.048 485.034 518.946C487.167 518.799 549.523 490.271 549.83 489.301C550.164 488.243 519.487 448.545 517.878 447.954C517.428 447.789 510.001 462.614 501.374 480.899ZM582.081 509.919C554.597 514.19 524.478 525.688 495.098 543.125L484.836 549.215L603.386 549.234C668.995 549.244 721.937 548.835 721.937 548.321C721.937 546.898 706.938 535.725 697.055 529.785C680.102 519.597 655.618 512.023 630.973 509.344C616.844 507.809 593.932 508.078 582.081 509.919ZM560.446 573.004L464.309 573.556L459.85 575.941C453.217 579.489 447.113 587.135 442.949 597.113L439.256 605.961L517.134 606.501C559.966 606.798 595.62 607.434 596.362 607.915C597.431 608.608 597.712 640.844 597.712 763.128C597.712 862.875 598.087 917.698 598.772 918.122C599.355 918.483 603.882 919.063 608.832 919.413C619.062 920.134 621.554 919.29 624.771 914.015C626.822 910.65 626.87 907.175 626.873 758.537L626.877 606.501L664.414 606.35C685.059 606.267 720.103 605.903 742.289 605.54L782.627 604.881L776.216 595.12C769.209 584.451 763.347 578.788 755.012 574.635L749.594 571.935L703.089 572.193C677.51 572.336 613.321 572.7 560.446 573.004ZM437.304 632.349C428.863 633.784 425.873 636.843 418.518 651.572C408.617 671.403 404.354 690.287 404.364 714.287C404.367 723.028 405.098 735.013 405.989 740.92C411.11 774.899 426.352 811.727 446.281 838.282C465.569 863.982 495.06 887.208 524.199 899.648C537.222 905.208 569.247 916.864 574.931 918.112L578.439 918.883L577.771 781.865C577.402 706.505 576.849 642.794 576.543 640.286C576.152 637.093 575.148 635.068 573.199 633.535C570.469 631.387 569.177 631.347 506.019 631.48C470.602 631.554 439.68 631.945 437.304 632.349ZM662.824 633.374C654.3 633.892 651.349 634.483 649.862 635.971C648.171 637.664 647.869 640.797 647.365 661.895C646.588 694.372 646.696 919.411 647.489 920.204C648.536 921.251 694.598 903.912 707.349 897.673C753.186 875.24 789.114 835.267 806.435 787.431C815.955 761.138 819.07 745.859 819.869 721.54C820.557 700.585 819.248 690.321 813.635 672.689C810.096 661.567 802.865 645.962 798.51 640.047C793.179 632.806 795.529 633.059 731.653 632.872C699.868 632.779 668.895 633.005 662.824 633.374ZM836.589 727.211C832.285 747.279 825.332 785.871 825.916 786.455C826.798 787.336 864.488 776.941 864.506 775.811C864.526 774.584 838.845 722.08 838.225 722.08C837.93 722.08 837.195 724.388 836.589 727.211ZM378.515 735.313C377.412 737.838 372.066 749.342 366.633 760.876C361.201 772.41 357.137 782.217 357.604 782.668C358.07 783.119 365.5 785.399 374.114 787.736C396.624 793.842 395.718 793.673 395.718 791.769C395.718 790.865 392.801 777.004 389.237 760.968C385.672 744.931 382.756 731.566 382.756 731.267C382.756 730.968 382.252 730.723 381.637 730.723C381.022 730.723 379.617 732.789 378.515 735.313ZM852.165 803.741C823.682 810.052 801.129 830.967 794.393 857.319C791.266 869.546 790.741 878.109 792.517 887.888C794.797 900.448 798.14 908.403 803.482 913.978L808.102 918.799L855.123 918.467L902.145 918.133L906.802 914.859C909.363 913.058 912.906 909.242 914.676 906.379C917.432 901.923 917.885 900.139 917.831 893.991C917.747 884.578 916.222 880.745 896.921 841.44C886.242 819.695 879.882 807.979 877.589 805.827C874.589 803.013 873.28 802.587 866.915 802.35C862.925 802.202 856.287 802.829 852.165 803.741ZM347.109 809.25C343.722 810.993 341.855 814.135 329.197 839.376C309.755 878.147 307.007 884.899 306.782 894.451C306.622 901.243 306.967 902.685 309.881 907.413C312.092 911 315.067 913.876 319.015 916.244L324.87 919.754L364.344 919.689C386.055 919.655 406.217 919.231 409.147 918.751C420.9 916.822 427.573 903.221 427.469 881.408C427.422 871.559 426.923 868.047 424.554 860.884C415.959 834.891 396.289 817.119 368.535 810.274C356.605 807.332 351.327 807.08 347.109 809.25ZM450.365 880.596C449.777 882.475 446.191 903.731 444.806 913.542L444.082 918.673H474.691H505.299L482.644 901.819C450.629 878.001 451.082 878.299 450.365 880.596ZM745.159 895.542C732.683 904.797 720.901 913.423 718.977 914.712C717.055 915.999 715.477 917.297 715.473 917.594C715.469 917.891 729.438 918.134 746.514 918.134C766.566 918.134 777.527 917.751 777.456 917.054C777.127 913.75 768.835 878.717 768.383 878.716C768.086 878.715 757.635 886.287 745.159 895.542Z" fill="black"/>
</svg>
