<svg width="1215" height="1215" viewBox="0 0 1215 1215" fill="none" xmlns="http://www.w3.org/2000/svg">
<path d="M607.5 0C597.551 0 587.616 0.245806 577.693 0.737417C567.757 1.22902 557.847 1.9535 547.951 2.93672C538.067 3.907 528.196 5.12309 518.363 6.58498C508.531 8.03394 498.738 9.74163 488.983 11.6822C479.229 13.6228 469.539 15.7962 459.888 18.2154C450.25 20.6217 440.663 23.2738 431.154 26.1588C421.646 29.0438 412.202 32.1616 402.835 35.5123C393.482 38.863 384.206 42.4466 375.02 46.2501C365.835 50.0536 356.753 54.077 347.762 58.3334C338.771 62.5767 329.896 67.053 321.125 71.7362C312.366 76.4194 303.711 81.3226 295.186 86.4327C286.66 91.5429 278.264 96.86 269.997 102.384C261.73 107.908 253.606 113.639 245.611 119.552C237.629 125.477 229.789 131.596 222.104 137.896C214.419 144.21 206.903 150.704 199.529 157.38C192.168 164.055 184.962 170.912 177.937 177.937C170.912 184.962 164.055 192.168 157.38 199.529C150.704 206.903 144.21 214.419 137.896 222.104C131.596 229.789 125.477 237.629 119.552 245.611C113.639 253.606 107.908 261.73 102.384 269.997C96.86 278.264 91.5429 286.66 86.4327 295.186C81.3226 303.711 76.4194 312.366 71.7362 321.125C67.053 329.896 62.5767 338.771 58.3334 347.762C54.077 356.753 50.0536 365.835 46.2501 375.02C42.4466 384.206 38.863 393.482 35.5123 402.835C32.1616 412.202 29.0438 421.646 26.1588 431.154C23.2738 440.663 20.6217 450.25 18.2154 459.888C15.7962 469.539 13.6228 479.229 11.6822 488.983C9.74163 498.738 8.03394 508.531 6.58498 518.363C5.12309 528.196 3.907 538.067 2.93672 547.951C1.9535 557.847 1.22902 567.757 0.737417 577.693C0.245806 587.616 0 597.551 0 607.5C0 617.436 0.245806 627.384 0.737417 637.307C1.22902 647.243 1.9535 657.153 2.93672 667.049C3.907 676.933 5.12309 686.804 6.58498 696.637C8.03394 706.469 9.74163 716.262 11.6822 726.017C13.6228 735.771 15.7962 745.461 18.2154 755.112C20.6217 764.75 23.2738 774.337 26.1588 783.846C29.0438 793.354 32.1616 802.798 35.5123 812.165C38.863 821.518 42.4466 830.794 46.2501 839.98C50.0536 849.165 54.077 858.247 58.3334 867.238C62.5767 876.229 67.053 885.104 71.7362 893.875C76.4194 902.634 81.3226 911.289 86.4327 919.814C91.5429 928.34 96.86 936.736 102.384 945.003C107.908 953.27 113.639 961.394 119.552 969.389C125.477 977.371 131.596 985.211 137.896 992.896C144.21 1000.58 150.704 1008.1 157.38 1015.47C164.055 1022.83 170.912 1030.04 177.937 1037.06C184.962 1044.09 192.168 1050.94 199.529 1057.62C206.903 1064.3 214.419 1070.79 222.104 1077.1C229.789 1083.4 237.629 1089.52 245.611 1095.45C253.606 1101.36 261.73 1107.09 269.997 1112.62C278.264 1118.14 286.66 1123.46 295.186 1128.57C303.711 1133.68 312.366 1138.58 321.125 1143.26C329.896 1147.95 338.771 1152.42 347.762 1156.67C356.753 1160.92 365.835 1164.95 375.02 1168.75C384.206 1172.55 393.482 1176.14 402.835 1179.49C412.202 1182.84 421.646 1185.94 431.154 1188.84C440.663 1191.73 450.25 1194.38 459.888 1196.78C469.539 1199.2 479.229 1201.38 488.983 1203.32C498.738 1205.26 508.531 1206.97 518.363 1208.42C528.196 1209.88 538.067 1211.09 547.951 1212.06C557.847 1213.05 567.757 1213.77 577.693 1214.26C587.616 1214.75 597.551 1215 607.5 1215C617.436 1215 627.384 1214.75 637.307 1214.26C647.243 1213.77 657.153 1213.05 667.049 1212.06C676.933 1211.09 686.804 1209.88 696.637 1208.42C706.469 1206.97 716.262 1205.26 726.017 1203.32C735.771 1201.38 745.461 1199.2 755.112 1196.78C764.75 1194.38 774.337 1191.73 783.846 1188.84C793.354 1185.94 802.798 1182.83 812.165 1179.49C821.518 1176.14 830.794 1172.55 839.98 1168.75C849.165 1164.95 858.247 1160.92 867.238 1156.67C876.229 1152.42 885.104 1147.95 893.875 1143.26C902.634 1138.58 911.289 1133.68 919.814 1128.57C928.34 1123.46 936.736 1118.14 945.003 1112.62C953.27 1107.09 961.394 1101.36 969.389 1095.45C977.371 1089.52 985.211 1083.4 992.896 1077.1C1000.58 1070.79 1008.1 1064.3 1015.47 1057.62C1022.83 1050.94 1030.04 1044.09 1037.06 1037.06C1044.09 1030.04 1050.94 1022.83 1057.62 1015.47C1064.3 1008.1 1070.79 1000.58 1077.1 992.896C1083.4 985.211 1089.52 977.371 1095.45 969.389C1101.36 961.394 1107.09 953.27 1112.62 945.003C1118.14 936.736 1123.46 928.34 1128.57 919.814C1133.68 911.289 1138.58 902.634 1143.26 893.875C1147.95 885.104 1152.42 876.229 1156.67 867.238C1160.92 858.247 1164.95 849.165 1168.75 839.98C1172.55 830.794 1176.14 821.518 1179.49 812.165C1182.84 802.798 1185.94 793.354 1188.84 783.846C1191.73 774.337 1194.38 764.75 1196.78 755.112C1199.2 745.461 1201.38 735.771 1203.32 726.017C1205.26 716.262 1206.97 706.469 1208.42 696.637C1209.88 686.804 1211.09 676.933 1212.06 667.049C1213.05 657.153 1213.77 647.243 1214.26 637.307C1214.75 627.384 1215 617.436 1215 607.5C1215 597.551 1214.75 587.616 1214.26 577.693C1213.77 567.757 1213.05 557.847 1212.06 547.951C1211.09 538.067 1209.88 528.196 1208.42 518.363C1206.97 508.531 1205.26 498.738 1203.32 488.983C1201.38 479.229 1199.2 469.539 1196.78 459.888C1194.38 450.25 1191.73 440.663 1188.84 431.154C1185.94 421.646 1182.83 412.202 1179.49 402.835C1176.14 393.482 1172.55 384.206 1168.75 375.02C1164.95 365.835 1160.92 356.753 1156.67 347.762C1152.42 338.771 1147.95 329.896 1143.26 321.125C1138.58 312.366 1133.68 303.711 1128.57 295.186C1123.46 286.66 1118.14 278.264 1112.62 269.997C1107.09 261.73 1101.36 253.606 1095.45 245.611C1089.52 237.629 1083.4 229.789 1077.1 222.104C1070.79 214.419 1064.3 206.903 1057.62 199.529C1050.94 192.168 1044.09 184.962 1037.06 177.937C1030.04 170.912 1022.83 164.055 1015.47 157.38C1008.1 150.704 1000.58 144.21 992.896 137.896C985.211 131.596 977.371 125.477 969.389 119.552C961.394 113.639 953.27 107.908 945.003 102.384C936.736 96.86 928.34 91.5429 919.814 86.4327C911.289 81.3226 902.634 76.4194 893.875 71.7362C885.104 67.053 876.229 62.5767 867.238 58.3334C858.247 54.077 849.165 50.0536 839.98 46.2501C830.794 42.4466 821.518 38.863 812.165 35.5123C802.798 32.1616 793.354 29.0438 783.846 26.1588C774.337 23.2738 764.75 20.6217 755.112 18.2154C745.461 15.7962 735.771 13.6228 726.017 11.6822C716.262 9.74163 706.469 8.03394 696.637 6.58498C686.804 5.12309 676.933 3.907 667.049 2.93672C657.153 1.9535 647.243 1.22902 637.307 0.737417C627.384 0.245806 617.436 0 607.5 0Z" fill="#571AFF"/>
<mask id="mask0_1226_24" style="mask-type:luminance" maskUnits="userSpaceOnUse" x="37" y="40" width="1132" height="1131">
<path fill-rule="evenodd" clip-rule="evenodd" d="M37.9066 40.4916H1168.09V1170.68H37.9066V40.4916Z" fill="white"/>
</mask>
<g mask="url(#mask0_1226_24)">
<path fill-rule="evenodd" clip-rule="evenodd" d="M406.548 44.3971C296.195 82.8591 195.816 155.514 129.164 245.155C126.577 248.635 124.144 251.74 123.756 252.05C122.036 253.422 98.723 288.973 91.2065 301.677C73.5733 331.497 54.0124 374.047 41.4505 409.883L37.8798 420.077L38.1774 610.693L38.4749 801.321L43.8826 814.892C46.8582 822.356 50.1054 830.765 51.1015 833.56C61.1149 861.957 86.0058 909.203 109.81 945C130.82 976.592 150.484 1000.54 179.813 1030.24C239.854 1091.07 309.688 1136.56 389.484 1166.83L402.641 1171.83H808.969L824.792 1165.72C885.906 1142.15 937.499 1111.84 993.323 1066.67C1006.86 1055.73 1049.35 1013.85 1058.24 1002.7C1061.71 998.34 1067.14 991.729 1070.29 987.99C1080.86 975.48 1101.5 947.109 1108.72 935.194C1109.34 934.159 1113.83 926.772 1118.7 918.789C1123.56 910.807 1133.24 892.812 1140.2 878.814C1152.89 853.315 1154.34 850.158 1159.06 837.519C1160.44 833.793 1162.33 829.045 1163.24 827.001C1169.72 812.317 1169.23 830.287 1169.25 608.48C1169.27 386.454 1169.77 404.605 1163.24 389.843C1162.33 387.799 1159.93 381.784 1157.91 376.492C1150.7 357.708 1130.91 318.327 1116.94 295.04C1049.31 182.268 942.894 94.9294 815.645 47.7737L796.045 40.5031L606.763 40.5548L417.467 40.5936L406.548 44.3971M302.015 95.7434C300.087 97.4382 292.454 101.772 292.454 101.164C292.454 100.841 294.615 99.2753 297.267 97.6969C302.144 94.7602 303.955 94.0228 302.015 95.7434M257.384 124.698C257.384 124.969 255.728 126.276 253.709 127.621L250.035 130.054L253.425 127.13C256.905 124.141 257.384 123.844 257.384 124.698M240.411 137.08C240.411 137.313 238.004 139.396 235.042 141.698L229.673 145.89L234.757 141.271C239.803 136.705 240.411 136.252 240.411 137.08M207.602 164.131C207.602 164.3 204.678 167.223 201.107 170.626L194.6 176.81L200.784 170.315C206.528 164.261 207.602 163.29 207.602 164.131M1021.05 179.072C1024.43 182.5 1026.94 185.295 1026.62 185.295C1026.31 185.295 1023.3 182.5 1019.92 179.072C1016.53 175.657 1014.02 172.849 1014.33 172.849C1014.65 172.849 1017.67 175.657 1021.05 179.072M1035.19 193.213C1038.25 196.331 1040.5 198.88 1040.19 198.88C1039.88 198.88 1037.11 196.331 1034.06 193.213C1031 190.108 1028.74 187.56 1029.05 187.56C1029.37 187.56 1032.12 190.108 1035.19 193.213M174.792 196.927C174.792 197.108 171.364 200.536 167.16 204.573L159.527 211.882L166.849 204.249C173.641 197.16 174.792 196.099 174.792 196.927M906.58 199.9C918.12 205.101 921.173 215.593 915.312 229.85C913.799 233.498 900.474 258.958 885.686 286.411C856.5 340.578 853.667 346.491 853.641 353.308C853.589 364.357 847.199 354.318 946.542 499.252C1025.21 614.03 1019.55 604.029 1018.46 625.854C1017.42 647.136 994.94 777.296 990.943 785.239C983.543 799.949 982.935 800.13 900.564 811.527C849.747 818.565 848.272 819.341 843.499 841.347C838.673 863.573 842.8 860.248 700.88 956.332C661.034 983.306 682.121 976.643 520.317 1013.37C382.899 1044.58 382.485 1044.65 374.581 1042.88C358.086 1039.18 356.508 1036.58 335.097 977.239C326.675 953.913 307.812 901.634 293.167 861.076C278.523 820.519 265.702 784.372 264.667 780.75C262.494 773.156 260.217 651.909 261.174 595.413C261.847 556.007 262.959 551.712 277.151 534.324C293.103 514.763 293.129 515.048 270.489 465.978C248.923 419.21 241.665 398.614 243.088 388.187C244.757 376.026 246.93 373.749 303.31 324.821C362.161 273.745 364.723 271.844 384.879 264.185L391.451 261.688L530.046 261.106L668.628 260.537L675.109 257.354C683.208 253.369 685.834 250.2 696.378 231.532C716.728 195.528 712.252 196.77 820.238 197.003L900.564 197.171L906.58 199.9M751.838 236.318C739.03 238.53 735.123 242.347 722.277 265.077C710.776 285.453 703.026 293.241 690.128 297.446C686.544 298.61 655.573 299.05 541.921 299.529L398.241 300.124L390.88 303.617C382.432 307.627 380.569 309.128 334.888 348.754C275.235 400.477 277.797 389.028 310.14 459.367C339.067 522.28 339.171 524.401 314.538 551.841C310.347 556.511 305.573 562.876 303.93 565.994L300.941 571.648V668.378C300.941 758.899 301.071 765.588 303.024 772.457C304.848 778.874 341.447 881.103 369.883 959.23C386.132 1003.84 386.986 1004.32 432.175 993.733C444.621 990.823 468.037 985.441 484.221 981.779C659.842 942.088 647.203 945.517 667.501 932.114C694.798 914.08 789.795 848.527 794.039 844.789C801.025 838.643 804.492 830.959 807.273 815.486C812.668 785.42 814.453 784.333 871.661 776.39C967.512 763.065 955.701 773.777 970.242 687.047C982.713 612.814 985.068 624.03 944.497 564.856C929.568 543.083 895.013 492.68 867.703 452.859C796.743 349.375 800.171 363.71 832.113 304.096C862.463 247.457 863.175 244.456 847.948 237.495C843.303 235.374 762.964 234.391 751.838 236.318M1049.33 1009.22C1049.33 1009.38 1040.3 1018.42 1029.25 1029.3L1009.17 1049.08L1028.95 1029C1047.33 1010.35 1049.33 1008.41 1049.33 1009.22M185.542 1031.55C195.491 1041.5 203.37 1049.65 203.059 1049.65C202.749 1049.65 194.353 1041.5 184.417 1031.55C174.468 1021.59 166.59 1013.45 166.9 1013.45C167.211 1013.45 175.607 1021.59 185.542 1031.55M315.085 1129.47C315.085 1129.78 313.558 1129.24 311.695 1128.28C309.832 1127.31 308.293 1126.26 308.293 1125.95C308.293 1125.64 309.832 1126.18 311.695 1127.14C313.558 1128.11 315.085 1129.16 315.085 1129.47M330.438 1137.62C329.933 1138.14 318.484 1132.43 318.484 1131.67C318.484 1131.37 321.265 1132.5 324.668 1134.17C328.07 1135.84 330.67 1137.4 330.438 1137.62" fill="#541BFC"/>
</g>
<path fill-rule="evenodd" clip-rule="evenodd" d="M297.267 97.7008C294.615 99.2791 292.454 100.844 292.454 101.168C292.454 101.776 300.087 97.442 302.015 95.7473C303.955 94.0266 302.144 94.764 297.267 97.7008M253.425 127.134L250.035 130.057L253.709 127.625C255.728 126.28 257.384 124.973 257.384 124.701C257.384 123.848 256.905 124.145 253.425 127.134M234.757 141.274L229.673 145.893L235.042 141.701C239.751 138.027 241.148 136.643 240.139 136.656C239.984 136.656 237.564 138.739 234.757 141.274M200.784 170.317L194.6 176.811L201.107 170.627C207.149 164.883 208.119 163.809 207.278 163.809C207.11 163.809 204.186 166.733 200.784 170.317M1019.92 179.076C1023.3 182.504 1026.31 185.299 1026.62 185.299C1026.93 185.299 1024.42 182.504 1021.05 179.076C1017.67 175.66 1014.64 172.853 1014.33 172.853C1014.02 172.853 1016.53 175.66 1019.92 179.076M1034.06 193.213C1037.11 196.331 1039.88 198.88 1040.19 198.88C1040.5 198.88 1038.25 196.331 1035.19 193.213C1032.12 190.109 1029.37 187.56 1029.05 187.56C1028.74 187.56 1031 190.109 1034.06 193.213M166.849 204.249L159.527 211.882L167.16 204.573C171.364 200.536 174.792 197.108 174.792 196.927C174.792 196.099 173.641 197.16 166.849 204.249M733.688 197.873C718.229 200.461 709.47 208.365 696.378 231.535C685.834 250.204 683.208 253.373 675.109 257.358L668.628 260.54L530.046 261.11L391.451 261.692L384.879 264.189C364.723 271.847 362.161 273.749 303.31 324.825C246.93 373.753 244.757 376.03 243.088 388.191C241.665 398.618 248.923 419.214 270.489 465.981C293.129 515.052 293.103 514.767 277.151 534.328C262.959 551.716 261.847 556.011 261.174 595.417C260.217 651.913 262.494 773.16 264.667 780.754C265.702 784.376 278.523 820.522 293.167 861.08C307.812 901.638 326.675 953.917 335.097 977.242C356.508 1036.58 358.086 1039.19 374.581 1042.89C382.485 1044.66 382.899 1044.58 520.317 1013.38C682.121 976.647 661.034 983.31 700.88 956.336C842.8 860.252 838.673 863.577 843.499 841.351C848.272 819.345 849.747 818.569 900.564 811.531C982.935 800.134 983.543 799.952 990.943 785.243C994.94 777.3 1017.42 647.14 1018.46 625.858C1019.55 604.033 1025.21 614.033 946.542 499.256C847.199 354.321 853.589 364.361 853.641 353.312C853.667 346.494 856.5 340.582 885.686 286.415C900.474 258.962 913.799 233.502 915.312 229.854C921.173 215.597 918.12 205.105 906.58 199.904L900.564 197.175L820.238 197.006C775.721 196.916 737.13 197.304 733.688 197.873M847.948 237.499C863.175 244.459 862.463 247.46 832.113 304.099C800.171 363.713 796.743 349.378 867.703 452.862C895.013 492.683 929.568 543.086 944.497 564.859C985.068 624.033 982.713 612.816 970.242 687.049C958.495 757.13 958.301 757.764 946.373 763.689C939.71 767.001 941.987 766.626 871.661 776.393C814.453 784.336 812.668 785.423 807.273 815.489C804.492 830.962 801.025 838.646 794.039 844.791C789.795 848.53 694.798 914.083 667.501 932.117C647.203 945.52 659.842 942.091 484.221 981.782C468.037 985.444 444.621 990.825 432.175 993.736C386.986 1004.32 386.132 1003.84 369.883 959.233C341.447 881.106 304.848 778.877 303.024 772.46C301.071 765.591 300.941 758.902 300.941 668.381V571.651L303.93 565.997C305.573 562.879 310.347 556.514 314.538 551.844C339.171 524.404 339.067 522.283 310.14 459.37C277.797 389.031 275.235 400.48 334.888 348.758C380.569 309.131 382.432 307.63 390.88 303.62L398.241 300.127L541.921 299.532C655.573 299.053 686.544 298.613 690.128 297.449C703.026 293.244 710.776 285.456 722.277 265.08C739.651 234.329 737.465 235.144 800.999 235.467C837.663 235.661 844.571 235.959 847.948 237.499M1028.95 1029L1009.17 1049.08L1029.25 1029.3C1040.3 1018.42 1049.33 1009.38 1049.33 1009.22C1049.33 1008.41 1047.33 1010.35 1028.95 1029M184.417 1031.55C194.353 1041.5 202.749 1049.65 203.059 1049.65C203.37 1049.65 195.491 1041.5 185.542 1031.55C175.607 1021.59 167.211 1013.45 166.9 1013.45C166.59 1013.45 174.468 1021.59 184.417 1031.55M308.289 1125.95C308.289 1126.26 309.829 1127.31 311.691 1128.28C313.554 1129.24 315.081 1129.78 315.081 1129.47C315.081 1129.16 313.554 1128.11 311.691 1127.14C309.829 1126.19 308.289 1125.64 308.289 1125.95M318.484 1131.67C318.484 1132.43 329.933 1138.14 330.438 1137.62C330.67 1137.4 328.07 1135.84 324.668 1134.17C321.265 1132.5 318.484 1131.37 318.484 1131.67" fill="#F7F5FC"/>
<path d="M228.326 169.358C225.751 169.358 223.177 169.487 220.602 169.746C218.041 169.992 215.492 170.367 212.97 170.872C210.434 171.376 207.937 171.997 205.479 172.748C203.008 173.498 200.576 174.365 198.195 175.361C195.815 176.344 193.486 177.444 191.222 178.66C188.945 179.876 186.733 181.195 184.586 182.631C182.451 184.068 180.381 185.594 178.389 187.237C176.396 188.867 174.482 190.601 172.658 192.425C170.833 194.236 169.113 196.151 167.47 198.143C165.84 200.135 164.3 202.205 162.877 204.353C161.441 206.487 160.109 208.7 158.905 210.977C157.689 213.254 156.59 215.569 155.594 217.963C154.61 220.343 153.744 222.762 152.993 225.233C152.243 227.704 151.622 230.201 151.117 232.724C150.613 235.26 150.238 237.795 149.979 240.37C149.733 242.931 149.604 245.506 149.604 248.08C149.604 250.655 149.733 253.229 149.979 255.804C150.238 258.365 150.613 260.914 151.117 263.437C151.622 265.972 152.243 268.469 152.993 270.94C153.744 273.398 154.61 275.83 155.594 278.211C156.59 280.591 157.689 282.92 158.905 285.197C160.109 287.461 161.441 289.673 162.877 291.821C164.3 293.955 165.84 296.025 167.47 298.017C169.113 300.01 170.833 301.924 172.658 303.749C174.482 305.573 176.396 307.293 178.389 308.936C180.381 310.566 182.451 312.106 184.586 313.542C186.733 314.965 188.945 316.298 191.222 317.514C193.486 318.717 195.815 319.829 198.195 320.813C200.576 321.796 203.008 322.663 205.479 323.413C207.937 324.163 210.434 324.784 212.97 325.289C215.492 325.793 218.041 326.169 220.602 326.427C223.177 326.673 225.751 326.802 228.326 326.802C230.9 326.802 233.475 326.673 236.036 326.427C238.611 326.169 241.159 325.793 243.682 325.289C246.205 324.784 248.715 324.163 251.173 323.413C253.644 322.663 256.063 321.796 258.443 320.813C260.837 319.829 263.165 318.717 265.429 317.514C267.706 316.298 269.919 314.965 272.053 313.542C274.201 312.106 276.271 310.566 278.263 308.936C280.255 307.293 282.17 305.573 283.994 303.749C285.805 301.924 287.539 300.01 289.182 298.017C290.812 296.025 292.352 293.955 293.775 291.821C295.211 289.673 296.53 287.461 297.746 285.197C298.962 282.92 300.062 280.591 301.058 278.211C302.041 275.83 302.908 273.398 303.659 270.94C304.409 268.469 305.03 265.972 305.534 263.437C306.039 260.914 306.414 258.365 306.66 255.804C306.919 253.229 307.048 250.655 307.048 248.08C307.048 245.506 306.919 242.931 306.66 240.37C306.414 237.795 306.039 235.26 305.534 232.724C305.03 230.201 304.409 227.704 303.659 225.233C302.908 222.762 302.041 220.343 301.058 217.963C300.062 215.569 298.962 213.254 297.746 210.977C296.53 208.7 295.211 206.487 293.775 204.353C292.352 202.205 290.812 200.135 289.182 198.143C287.539 196.151 285.805 194.236 283.994 192.425C282.17 190.601 280.255 188.867 278.263 187.237C276.271 185.594 274.201 184.068 272.053 182.631C269.919 181.195 267.706 179.876 265.429 178.66C263.165 177.444 260.837 176.344 258.443 175.361C256.063 174.365 253.644 173.498 251.173 172.748C248.715 171.997 246.205 171.376 243.682 170.872C241.159 170.367 238.611 169.992 236.036 169.746C233.475 169.487 230.9 169.358 228.326 169.358Z" fill="#571AFF"/>
<path d="M262.921 128.698C260.346 128.698 257.772 128.815 255.21 129.073C252.649 129.319 250.1 129.707 247.565 130.199C245.042 130.703 242.545 131.337 240.074 132.088C237.603 132.825 235.184 133.692 232.803 134.688C230.423 135.671 228.094 136.771 225.817 137.987C223.54 139.203 221.328 140.523 219.194 141.959C217.046 143.395 214.976 144.921 212.984 146.564C210.991 148.194 209.09 149.928 207.266 151.752C205.441 153.576 203.708 155.478 202.078 157.47C200.435 159.463 198.908 161.533 197.472 163.68C196.036 165.828 194.717 168.027 193.5 170.304C192.284 172.581 191.185 174.91 190.201 177.29C189.205 179.67 188.339 182.09 187.588 184.561C186.851 187.032 186.217 189.528 185.712 192.051C185.221 194.587 184.833 197.135 184.587 199.697C184.328 202.259 184.199 204.833 184.199 207.408C184.199 209.995 184.328 212.569 184.587 215.131C184.833 217.692 185.221 220.241 185.712 222.777C186.217 225.299 186.851 227.796 187.588 230.267C188.339 232.725 189.205 235.158 190.201 237.538C191.185 239.918 192.284 242.247 193.5 244.524C194.717 246.801 196.036 249 197.472 251.148C198.908 253.295 200.435 255.365 202.078 257.358C203.708 259.35 205.441 261.252 207.266 263.076C209.09 264.9 210.991 266.634 212.984 268.264C214.976 269.894 217.046 271.433 219.194 272.869C221.328 274.305 223.54 275.625 225.817 276.841C228.094 278.057 230.423 279.157 232.803 280.14C235.184 281.123 237.603 281.99 240.074 282.74C242.545 283.491 245.042 284.112 247.565 284.616C250.1 285.121 252.649 285.496 255.21 285.755C257.772 286.013 260.346 286.13 262.921 286.13C265.508 286.13 268.07 286.013 270.644 285.755C273.206 285.496 275.754 285.121 278.277 284.616C280.813 284.112 283.31 283.491 285.781 282.74C288.239 281.99 290.671 281.123 293.051 280.14C295.432 279.157 297.76 278.057 300.037 276.841C302.301 275.625 304.514 274.305 306.661 272.869C308.809 271.433 310.866 269.894 312.871 268.264C314.863 266.634 316.765 264.9 318.589 263.076C320.413 261.252 322.147 259.35 323.777 257.358C325.407 255.365 326.947 253.295 328.383 251.148C329.806 249 331.138 246.801 332.354 244.524C333.57 242.247 334.67 239.918 335.653 237.538C336.636 235.158 337.503 232.725 338.254 230.267C339.004 227.796 339.625 225.299 340.129 222.777C340.634 220.241 341.009 217.692 341.268 215.131C341.514 212.569 341.643 209.995 341.643 207.408C341.643 204.833 341.514 202.259 341.268 199.697C341.009 197.135 340.634 194.587 340.129 192.051C339.625 189.528 339.004 187.032 338.254 184.561C337.503 182.09 336.636 179.67 335.653 177.29C334.67 174.91 333.57 172.581 332.354 170.304C331.138 168.027 329.806 165.828 328.383 163.68C326.947 161.533 325.407 159.463 323.777 157.47C322.147 155.478 320.413 153.576 318.589 151.752C316.765 149.928 314.863 148.194 312.871 146.564C310.866 144.921 308.809 143.395 306.661 141.959C304.514 140.523 302.301 139.203 300.037 137.987C297.76 136.771 295.432 135.671 293.051 134.688C290.671 133.692 288.239 132.825 285.781 132.088C283.31 131.337 280.813 130.703 278.277 130.199C275.754 129.707 273.206 129.319 270.644 129.073C268.07 128.815 265.508 128.698 262.921 128.698Z" fill="#571AFF"/>
<path d="M304.563 108.233C301.976 108.233 299.415 108.362 296.84 108.608C294.278 108.866 291.73 109.242 289.207 109.746C286.671 110.251 284.175 110.872 281.704 111.622C279.246 112.372 276.813 113.239 274.433 114.222C272.053 115.206 269.724 116.318 267.447 117.521C265.183 118.737 262.971 120.07 260.823 121.493C258.676 122.929 256.619 124.469 254.626 126.099C252.634 127.742 250.719 129.462 248.895 131.286C247.071 133.111 245.35 135.025 243.707 137.018C242.077 139.01 240.538 141.08 239.102 143.214C237.679 145.362 236.346 147.574 235.13 149.838C233.914 152.115 232.814 154.444 231.831 156.824C230.848 159.205 229.981 161.637 229.231 164.108C228.48 166.566 227.859 169.063 227.355 171.598C226.85 174.121 226.475 176.67 226.216 179.231C225.971 181.806 225.841 184.38 225.841 186.955C225.841 189.529 225.971 192.104 226.216 194.665C226.475 197.24 226.85 199.775 227.355 202.311C227.859 204.834 228.48 207.331 229.231 209.802C229.981 212.273 230.848 214.692 231.831 217.072C232.814 219.466 233.914 221.781 235.13 224.058C236.346 226.335 237.679 228.548 239.102 230.682C240.538 232.83 242.077 234.9 243.707 236.892C245.35 238.884 247.071 240.799 248.895 242.61C250.719 244.434 252.634 246.168 254.626 247.798C256.619 249.441 258.676 250.968 260.823 252.404C262.971 253.84 265.183 255.159 267.447 256.375C269.724 257.591 272.053 258.691 274.433 259.687C276.813 260.67 279.246 261.537 281.704 262.287C284.175 263.038 286.671 263.659 289.207 264.163C291.73 264.668 294.278 265.043 296.84 265.289C299.415 265.548 301.976 265.677 304.563 265.677C307.138 265.677 309.712 265.548 312.274 265.289C314.848 265.043 317.384 264.668 319.92 264.163C322.443 263.659 324.939 263.038 327.41 262.287C329.881 261.537 332.301 260.67 334.681 259.687C337.061 258.691 339.39 257.591 341.667 256.375C343.944 255.159 346.156 253.84 348.291 252.404C350.438 250.968 352.508 249.441 354.501 247.798C356.493 246.168 358.395 244.434 360.219 242.61C362.043 240.799 363.777 238.884 365.407 236.892C367.05 234.9 368.576 232.83 370.012 230.682C371.448 228.548 372.768 226.335 373.984 224.058C375.2 221.781 376.3 219.466 377.283 217.072C378.279 214.692 379.146 212.273 379.896 209.802C380.634 207.331 381.268 204.834 381.772 202.311C382.277 199.775 382.652 197.24 382.898 194.665C383.156 192.104 383.286 189.529 383.286 186.955C383.286 184.38 383.156 181.806 382.898 179.231C382.652 176.67 382.277 174.121 381.772 171.598C381.268 169.063 380.634 166.566 379.896 164.108C379.146 161.637 378.279 159.205 377.283 156.824C376.3 154.444 375.2 152.115 373.984 149.838C372.768 147.574 371.448 145.362 370.012 143.214C368.576 141.08 367.05 139.01 365.407 137.018C363.777 135.025 362.043 133.111 360.219 131.286C358.395 129.462 356.493 127.742 354.501 126.099C352.508 124.469 350.438 122.929 348.291 121.493C346.156 120.07 343.944 118.737 341.667 117.521C339.39 116.318 337.061 115.206 334.681 114.222C332.301 113.239 329.881 112.372 327.41 111.622C324.939 110.872 322.443 110.251 319.92 109.746C317.384 109.242 314.848 108.866 312.274 108.608C309.712 108.362 307.138 108.233 304.563 108.233Z" fill="#571AFF"/>
<path d="M341.644 73.5227C339.07 73.5227 336.495 73.6521 333.934 73.8979C331.359 74.1566 328.823 74.5318 326.288 75.0363C323.765 75.5409 321.268 76.1619 318.797 76.9122C316.326 77.6626 313.907 78.5294 311.527 79.5126C309.133 80.4958 306.817 81.5955 304.54 82.8115C302.264 84.0276 300.051 85.3601 297.917 86.7832C295.769 88.2192 293.699 89.7588 291.707 91.3888C289.715 93.0189 287.8 94.7525 285.989 96.5766C284.165 98.4007 282.431 100.302 280.801 102.308C279.158 104.3 277.631 106.357 276.195 108.505C274.759 110.652 273.44 112.864 272.224 115.128C271.008 117.405 269.908 119.734 268.925 122.114C267.929 124.495 267.062 126.927 266.311 129.385C265.561 131.856 264.94 134.353 264.436 136.889C263.931 139.411 263.556 141.96 263.31 144.521C263.051 147.096 262.922 149.658 262.922 152.245C262.922 154.819 263.051 157.394 263.31 159.955C263.556 162.517 263.931 165.066 264.436 167.601C264.94 170.124 265.561 172.621 266.311 175.092C267.062 177.563 267.929 179.982 268.925 182.362C269.908 184.743 271.008 187.072 272.224 189.349C273.44 191.625 274.759 193.838 276.195 195.972C277.631 198.12 279.158 200.19 280.801 202.182C282.431 204.174 284.165 206.076 285.989 207.9C287.8 209.724 289.715 211.458 291.707 213.088C293.699 214.731 295.769 216.258 297.917 217.694C300.051 219.13 302.264 220.449 304.54 221.665C306.817 222.881 309.133 223.981 311.527 224.964C313.907 225.961 316.326 226.827 318.797 227.578C321.268 228.315 323.765 228.949 326.288 229.454C328.823 229.958 331.359 230.333 333.934 230.579C336.495 230.838 339.07 230.967 341.644 230.967C344.219 230.967 346.793 230.838 349.368 230.579C351.929 230.333 354.478 229.958 357 229.454C359.536 228.949 362.033 228.315 364.504 227.578C366.962 226.827 369.394 225.961 371.775 224.964C374.155 223.981 376.484 222.881 378.761 221.665C381.025 220.449 383.237 219.13 385.384 217.694C387.519 216.258 389.589 214.731 391.581 213.088C393.574 211.458 395.488 209.724 397.312 207.9C399.137 206.076 400.857 204.174 402.5 202.182C404.13 200.19 405.67 198.12 407.106 195.972C408.529 193.838 409.861 191.625 411.077 189.349C412.281 187.072 413.393 184.743 414.376 182.362C415.36 179.982 416.226 177.563 416.977 175.092C417.727 172.621 418.348 170.124 418.853 167.601C419.357 165.066 419.732 162.517 419.991 159.955C420.237 157.394 420.366 154.819 420.366 152.245C420.366 149.658 420.237 147.096 419.991 144.521C419.732 141.96 419.357 139.411 418.853 136.889C418.348 134.353 417.727 131.856 416.977 129.385C416.226 126.927 415.36 124.495 414.376 122.114C413.393 119.734 412.281 117.405 411.077 115.128C409.861 112.864 408.529 110.652 407.106 108.505C405.67 106.357 404.13 104.3 402.5 102.308C400.857 100.302 399.137 98.4007 397.312 96.5766C395.488 94.7525 393.574 93.0189 391.581 91.3888C389.589 89.7588 387.519 88.2192 385.384 86.7832C383.237 85.3601 381.025 84.0276 378.761 82.8115C376.484 81.5955 374.155 80.4958 371.775 79.5126C369.394 78.5294 366.962 77.6626 364.504 76.9122C362.033 76.1619 359.536 75.5409 357 75.0363C354.478 74.5318 351.929 74.1566 349.368 73.8979C346.793 73.6521 344.219 73.5227 341.644 73.5227Z" fill="#571AFF"/>
<path d="M1007.2 169.358C1004.23 169.358 1001.29 169.656 998.381 170.225C995.47 170.807 992.65 171.661 989.907 172.799C987.165 173.938 984.564 175.322 982.106 176.978C979.635 178.621 977.358 180.497 975.25 182.593C973.154 184.688 971.291 186.978 969.635 189.436C967.992 191.907 966.595 194.508 965.456 197.25C964.331 199.993 963.464 202.813 962.895 205.724C962.313 208.635 962.028 211.572 962.028 214.534C962.028 217.497 962.313 220.447 962.895 223.345C963.464 226.255 964.331 229.089 965.456 231.818C966.595 234.561 967.992 237.174 969.635 239.632C971.291 242.103 973.154 244.38 975.25 246.476C977.358 248.572 979.635 250.448 982.106 252.104C984.564 253.747 987.165 255.144 989.907 256.269C992.65 257.408 995.47 258.262 998.381 258.844C1001.29 259.426 1004.23 259.711 1007.2 259.711C1010.17 259.711 1013.1 259.426 1016.01 258.844C1018.93 258.262 1021.75 257.408 1024.49 256.269C1027.23 255.144 1029.83 253.747 1032.29 252.104C1034.76 250.448 1037.05 248.572 1039.15 246.476C1041.24 244.38 1043.12 242.103 1044.76 239.632C1046.4 237.174 1047.8 234.561 1048.94 231.818C1050.06 229.089 1050.93 226.255 1051.5 223.345C1052.08 220.447 1052.37 217.497 1052.37 214.534C1052.37 211.572 1052.08 208.635 1051.5 205.724C1050.93 202.813 1050.06 199.993 1048.94 197.25C1047.8 194.508 1046.4 191.907 1044.76 189.436C1043.12 186.978 1041.24 184.688 1039.15 182.593C1037.05 180.497 1034.76 178.621 1032.29 176.978C1029.83 175.322 1027.23 173.938 1024.49 172.799C1021.75 171.661 1018.93 170.807 1016.01 170.225C1013.1 169.656 1010.17 169.358 1007.2 169.358Z" fill="#571AFF"/>
<path d="M976.141 896.643C973.554 896.643 970.979 896.759 968.418 897.018C965.856 897.264 963.308 897.652 960.772 898.143C958.249 898.648 955.752 899.282 953.281 900.032C950.81 900.77 948.391 901.636 946.011 902.632C943.63 903.616 941.302 904.715 939.025 905.931C936.748 907.148 934.548 908.467 932.401 909.903C930.253 911.339 928.183 912.866 926.191 914.509C924.199 916.139 922.297 917.872 920.473 919.697C918.649 921.521 916.915 923.422 915.285 925.415C913.642 927.407 912.115 929.477 910.679 931.625C909.243 933.772 907.924 935.971 906.708 938.248C905.492 940.525 904.392 942.854 903.409 945.234C902.426 947.615 901.559 950.034 900.808 952.505C900.058 954.976 899.424 957.473 898.933 959.996C898.428 962.531 898.053 965.08 897.794 967.641C897.535 970.203 897.419 972.777 897.419 975.352C897.419 977.939 897.535 980.514 897.794 983.075C898.053 985.637 898.428 988.186 898.933 990.721C899.424 993.244 900.058 995.741 900.808 998.212C901.559 1000.67 902.426 1003.1 903.409 1005.48C904.392 1007.86 905.492 1010.19 906.708 1012.47C907.924 1014.75 909.243 1016.94 910.679 1019.09C912.115 1021.24 913.642 1023.31 915.285 1025.3C916.915 1027.29 918.649 1029.2 920.473 1031.02C922.297 1032.84 924.199 1034.58 926.191 1036.21C928.183 1037.84 930.253 1039.38 932.401 1040.81C934.548 1042.25 936.748 1043.57 939.025 1044.79C941.302 1046 943.63 1047.1 946.011 1048.08C948.391 1049.07 950.81 1049.93 953.281 1050.68C955.752 1051.44 958.249 1052.06 960.772 1052.56C963.308 1053.07 965.856 1053.44 968.418 1053.7C970.979 1053.96 973.554 1054.07 976.141 1054.07C978.716 1054.07 981.29 1053.96 983.852 1053.7C986.413 1053.44 988.962 1053.07 991.498 1052.56C994.02 1052.06 996.517 1051.44 998.988 1050.68C1001.46 1049.93 1003.88 1049.07 1006.26 1048.08C1008.64 1047.1 1010.97 1046 1013.24 1044.79C1015.52 1043.57 1017.72 1042.25 1019.87 1040.81C1022.02 1039.38 1024.09 1037.84 1026.08 1036.21C1028.07 1034.58 1029.97 1032.84 1031.8 1031.02C1033.62 1029.2 1035.35 1027.29 1036.98 1025.3C1038.63 1023.31 1040.15 1021.24 1041.59 1019.09C1043.03 1016.94 1044.35 1014.75 1045.56 1012.47C1046.78 1010.19 1047.88 1007.86 1048.86 1005.48C1049.84 1003.1 1050.72 1000.67 1051.46 998.212C1052.21 995.741 1052.85 993.244 1053.34 990.721C1053.84 988.186 1054.23 985.637 1054.48 983.075C1054.73 980.514 1054.85 977.939 1054.85 975.352C1054.85 972.777 1054.73 970.203 1054.48 967.641C1054.23 965.08 1053.84 962.531 1053.34 959.996C1052.85 957.473 1052.21 954.976 1051.46 952.505C1050.72 950.034 1049.84 947.615 1048.86 945.234C1047.88 942.854 1046.78 940.525 1045.56 938.248C1044.35 935.971 1043.03 933.772 1041.59 931.625C1040.15 929.477 1038.63 927.407 1036.98 925.415C1035.35 923.422 1033.62 921.521 1031.8 919.697C1029.97 917.872 1028.07 916.139 1026.08 914.509C1024.09 912.866 1022.02 911.339 1019.87 909.903C1017.72 908.467 1015.52 907.148 1013.24 905.931C1010.97 904.715 1008.64 903.616 1006.26 902.632C1003.88 901.636 1001.46 900.77 998.988 900.032C996.517 899.282 994.02 898.648 991.498 898.143C988.962 897.652 986.413 897.264 983.852 897.018C981.29 896.759 978.716 896.643 976.141 896.643Z" fill="#571AFF"/>
<path d="M993.528 876.28C990.941 876.28 988.367 876.41 985.805 876.655C983.243 876.914 980.695 877.289 978.159 877.794C975.636 878.298 973.14 878.919 970.669 879.67C968.198 880.42 965.778 881.287 963.398 882.27C961.018 883.253 958.689 884.353 956.412 885.569C954.135 886.785 951.936 888.118 949.788 889.541C947.641 890.977 945.571 892.516 943.578 894.146C941.586 895.776 939.684 897.51 937.86 899.334C936.036 901.158 934.302 903.06 932.672 905.052C931.029 907.045 929.503 909.114 928.067 911.262C926.631 913.41 925.311 915.609 924.095 917.886C922.879 920.163 921.779 922.491 920.796 924.872C919.813 927.252 918.946 929.684 918.196 932.142C917.445 934.613 916.812 937.11 916.32 939.646C915.815 942.169 915.44 944.717 915.181 947.279C914.923 949.853 914.806 952.415 914.806 955.002C914.806 957.577 914.923 960.151 915.181 962.713C915.44 965.274 915.815 967.823 916.32 970.359C916.812 972.881 917.445 975.378 918.196 977.849C918.946 980.32 919.813 982.739 920.796 985.12C921.779 987.5 922.879 989.829 924.095 992.106C925.311 994.383 926.631 996.582 928.067 998.73C929.503 1000.88 931.029 1002.95 932.672 1004.94C934.302 1006.93 936.036 1008.83 937.86 1010.66C939.684 1012.48 941.586 1014.22 943.578 1015.85C945.571 1017.49 947.641 1019.01 949.788 1020.45C951.936 1021.89 954.135 1023.21 956.412 1024.42C958.689 1025.64 961.018 1026.74 963.398 1027.72C965.778 1028.72 968.198 1029.58 970.669 1030.32C973.14 1031.07 975.636 1031.71 978.159 1032.21C980.695 1032.7 983.243 1033.09 985.805 1033.34C988.367 1033.6 990.941 1033.71 993.528 1033.71C996.103 1033.71 998.677 1033.6 1001.24 1033.34C1003.8 1033.09 1006.35 1032.7 1008.88 1032.21C1011.41 1031.71 1013.9 1031.07 1016.38 1030.32C1018.85 1029.58 1021.27 1028.72 1023.65 1027.72C1026.03 1026.74 1028.36 1025.64 1030.63 1024.42C1032.91 1023.21 1035.11 1021.89 1037.26 1020.45C1039.4 1019.01 1041.47 1017.49 1043.47 1015.85C1045.46 1014.22 1047.36 1012.48 1049.18 1010.66C1051.01 1008.83 1052.74 1006.93 1054.37 1004.94C1056.01 1002.95 1057.54 1000.88 1058.98 998.73C1060.41 996.582 1061.73 994.383 1062.95 992.106C1064.16 989.829 1065.26 987.5 1066.25 985.12C1067.23 982.739 1068.11 980.32 1068.85 977.849C1069.6 975.378 1070.23 972.881 1070.72 970.359C1071.23 967.823 1071.62 965.274 1071.86 962.713C1072.12 960.151 1072.24 957.577 1072.24 955.002C1072.24 952.415 1072.12 949.853 1071.86 947.279C1071.62 944.717 1071.23 942.169 1070.72 939.646C1070.23 937.11 1069.6 934.613 1068.85 932.142C1068.11 929.684 1067.23 927.252 1066.25 924.872C1065.26 922.491 1064.16 920.163 1062.95 917.886C1061.73 915.609 1060.41 913.41 1058.98 911.262C1057.54 909.114 1056.01 907.045 1054.37 905.052C1052.74 903.06 1051.01 901.158 1049.18 899.334C1047.36 897.51 1045.46 895.776 1043.47 894.146C1041.47 892.516 1039.4 890.977 1037.26 889.541C1035.11 888.118 1032.91 886.785 1030.63 885.569C1028.36 884.353 1026.03 883.253 1023.65 882.27C1021.27 881.287 1018.85 880.42 1016.38 879.67C1013.9 878.919 1011.41 878.298 1008.88 877.794C1006.35 877.289 1003.8 876.914 1001.24 876.655C998.677 876.41 996.103 876.28 993.528 876.28Z" fill="#571AFF"/>
<path d="M228.325 941.937C226.449 941.937 224.573 942.028 222.71 942.209C220.835 942.403 218.985 942.674 217.147 943.037C215.297 943.412 213.486 943.865 211.688 944.408C209.89 944.951 208.13 945.585 206.397 946.297C204.663 947.021 202.968 947.823 201.312 948.703C199.657 949.596 198.039 950.553 196.487 951.601C194.922 952.636 193.421 953.762 191.972 954.952C190.51 956.142 189.126 957.397 187.793 958.729C186.474 960.049 185.206 961.446 184.016 962.895C182.825 964.344 181.713 965.845 180.665 967.41C179.63 968.976 178.66 970.58 177.78 972.236C176.9 973.892 176.098 975.586 175.374 977.32C174.662 979.054 174.028 980.813 173.485 982.611C172.928 984.409 172.476 986.234 172.113 988.071C171.751 989.908 171.467 991.771 171.285 993.634C171.104 995.497 171.014 997.372 171.014 999.248C171.014 1001.12 171.104 1003 171.285 1004.86C171.467 1006.74 171.751 1008.59 172.113 1010.43C172.476 1012.28 172.928 1014.09 173.485 1015.89C174.028 1017.68 174.662 1019.44 175.374 1021.19C176.098 1022.92 176.9 1024.62 177.78 1026.27C178.66 1027.92 179.63 1029.53 180.665 1031.09C181.713 1032.65 182.825 1034.15 184.016 1035.61C185.206 1037.06 186.474 1038.45 187.793 1039.78C189.126 1041.1 190.51 1042.37 191.972 1043.56C193.421 1044.75 194.922 1045.86 196.487 1046.91C198.039 1047.94 199.657 1048.91 201.312 1049.79C202.968 1050.69 204.663 1051.49 206.397 1052.2C208.13 1052.92 209.89 1053.55 211.688 1054.1C213.486 1054.64 215.297 1055.1 217.147 1055.46C218.985 1055.82 220.835 1056.11 222.71 1056.29C224.573 1056.47 226.449 1056.56 228.325 1056.56C230.201 1056.56 232.077 1056.47 233.94 1056.29C235.816 1056.11 237.666 1055.82 239.503 1055.46C241.34 1055.1 243.164 1054.64 244.962 1054.1C246.76 1053.55 248.52 1052.92 250.253 1052.2C251.987 1051.49 253.682 1050.69 255.338 1049.79C256.994 1048.91 258.598 1047.94 260.163 1046.91C261.729 1045.86 263.229 1044.75 264.678 1043.56C266.127 1042.37 267.524 1041.1 268.844 1039.78C270.177 1038.45 271.431 1037.06 272.622 1035.61C273.812 1034.15 274.937 1032.65 275.972 1031.09C277.02 1029.53 277.978 1027.92 278.87 1026.27C279.75 1024.62 280.552 1022.92 281.277 1021.19C281.988 1019.44 282.622 1017.68 283.165 1015.89C283.709 1014.09 284.175 1012.28 284.537 1010.43C284.899 1008.59 285.171 1006.74 285.365 1004.86C285.546 1003 285.636 1001.12 285.636 999.248C285.636 997.372 285.546 995.497 285.365 993.634C285.171 991.771 284.899 989.908 284.537 988.071C284.175 986.234 283.709 984.409 283.165 982.611C282.622 980.813 281.988 979.054 281.277 977.32C280.552 975.586 279.75 973.892 278.87 972.236C277.978 970.58 277.02 968.976 275.972 967.41C274.937 965.845 273.812 964.344 272.622 962.895C271.431 961.446 270.177 960.049 268.844 958.729C267.524 957.397 266.127 956.142 264.678 954.952C263.229 953.762 261.729 952.636 260.163 951.601C258.598 950.553 256.994 949.596 255.338 948.703C253.682 947.823 251.987 947.021 250.253 946.297C248.52 945.585 246.76 944.951 244.962 944.408C243.164 943.865 241.34 943.412 239.503 943.037C237.666 942.674 235.816 942.403 233.94 942.209C232.077 942.028 230.201 941.937 228.325 941.937Z" fill="#571AFF"/>
<path d="M225.844 883.733C223.27 883.733 220.695 883.862 218.121 884.108C215.559 884.367 213.01 884.742 210.488 885.247C207.952 885.751 205.455 886.372 202.997 887.123C200.526 887.873 198.094 888.74 195.714 889.723C193.333 890.706 191.004 891.806 188.74 893.022C186.464 894.238 184.251 895.57 182.104 896.994C179.969 898.43 177.899 899.969 175.907 901.599C173.915 903.229 172 904.963 170.176 906.787C168.352 908.611 166.631 910.513 164.988 912.505C163.358 914.497 161.818 916.567 160.395 918.715C158.959 920.862 157.627 923.062 156.424 925.339C155.208 927.616 154.108 929.944 153.112 932.325C152.128 934.705 151.262 937.137 150.511 939.595C149.761 942.066 149.14 944.563 148.635 947.099C148.131 949.622 147.756 952.17 147.497 954.732C147.251 957.306 147.122 959.868 147.122 962.455C147.122 965.03 147.251 967.604 147.497 970.166C147.756 972.727 148.131 975.276 148.635 977.812C149.14 980.334 149.761 982.831 150.511 985.302C151.262 987.773 152.128 990.192 153.112 992.573C154.108 994.953 155.208 997.282 156.424 999.559C157.627 1001.84 158.959 1004.03 160.395 1006.18C161.818 1008.33 163.358 1010.4 164.988 1012.39C166.631 1014.38 168.352 1016.29 170.176 1018.11C172 1019.93 173.915 1021.67 175.907 1023.3C177.899 1024.94 179.969 1026.47 182.104 1027.9C184.251 1029.34 186.464 1030.66 188.74 1031.88C191.004 1033.09 193.333 1034.19 195.714 1035.17C198.094 1036.17 200.526 1037.04 202.997 1037.77C205.455 1038.53 207.952 1039.16 210.488 1039.66C213.01 1040.16 215.559 1040.54 218.121 1040.79C220.695 1041.05 223.27 1041.16 225.844 1041.16C228.419 1041.16 230.993 1041.05 233.555 1040.79C236.129 1040.54 238.678 1040.16 241.2 1039.66C243.723 1039.16 246.233 1038.53 248.691 1037.77C251.162 1037.04 253.581 1036.17 255.962 1035.17C258.355 1034.19 260.684 1033.09 262.948 1031.88C265.225 1030.66 267.437 1029.34 269.571 1027.9C271.719 1026.47 273.789 1024.94 275.781 1023.3C277.774 1021.67 279.688 1019.93 281.512 1018.11C283.324 1016.29 285.057 1014.38 286.7 1012.39C288.33 1010.4 289.87 1008.33 291.293 1006.18C292.729 1004.03 294.048 1001.84 295.264 999.559C296.481 997.282 297.58 994.953 298.576 992.573C299.56 990.192 300.426 987.773 301.177 985.302C301.927 982.831 302.548 980.334 303.053 977.812C303.557 975.276 303.932 972.727 304.178 970.166C304.437 967.604 304.566 965.03 304.566 962.455C304.566 959.868 304.437 957.306 304.178 954.732C303.932 952.17 303.557 949.622 303.053 947.099C302.548 944.563 301.927 942.066 301.177 939.595C300.426 937.137 299.56 934.705 298.576 932.325C297.58 929.944 296.481 927.616 295.264 925.339C294.048 923.062 292.729 920.862 291.293 918.715C289.87 916.567 288.33 914.497 286.7 912.505C285.057 910.513 283.324 908.611 281.512 906.787C279.688 904.963 277.774 903.229 275.781 901.599C273.789 899.969 271.719 898.43 269.571 896.994C267.437 895.57 265.225 894.238 262.948 893.022C260.684 891.806 258.355 890.706 255.962 889.723C253.581 888.74 251.162 887.873 248.691 887.123C246.233 886.372 243.723 885.751 241.2 885.247C238.678 884.742 236.129 884.367 233.555 884.108C230.993 883.862 228.419 883.733 225.844 883.733Z" fill="#571AFF"/>
<path d="M378.319 1080.67C373.145 1080.67 368.022 1080.89 362.963 1081.32C357.892 1081.75 352.963 1082.38 348.189 1083.22C343.415 1084.08 338.874 1085.1 334.579 1086.33C330.284 1087.56 326.299 1088.94 322.651 1090.49C318.99 1092.06 315.73 1093.75 312.858 1095.58C309.986 1097.41 307.566 1099.34 305.587 1101.39C303.608 1103.42 302.12 1105.51 301.111 1107.67C300.102 1109.83 299.597 1112.02 299.597 1114.22C299.597 1116.42 300.102 1118.6 301.111 1120.77C302.12 1122.93 303.608 1125.02 305.587 1127.05C307.566 1129.1 309.986 1131.02 312.858 1132.86C315.73 1134.69 318.99 1136.38 322.651 1137.95C326.299 1139.5 330.284 1140.88 334.579 1142.11C338.874 1143.34 343.415 1144.36 348.189 1145.22C352.963 1146.06 357.892 1146.69 362.963 1147.12C368.022 1147.54 373.145 1147.76 378.319 1147.76C383.481 1147.76 388.604 1147.54 393.676 1147.12C398.747 1146.69 403.663 1146.06 408.437 1145.22C413.211 1144.36 417.752 1143.34 422.047 1142.11C426.342 1140.88 430.327 1139.5 433.975 1137.95C437.636 1136.38 440.896 1134.69 443.768 1132.86C446.64 1131.02 449.059 1129.1 451.039 1127.05C453.018 1125.02 454.519 1122.93 455.528 1120.77C456.524 1118.6 457.029 1116.42 457.029 1114.22C457.029 1112.02 456.524 1109.83 455.528 1107.67C454.519 1105.51 453.018 1103.42 451.039 1101.39C449.059 1099.34 446.64 1097.41 443.768 1095.58C440.896 1093.75 437.636 1092.06 433.975 1090.49C430.327 1088.94 426.342 1087.56 422.047 1086.33C417.752 1085.1 413.211 1084.08 408.437 1083.22C403.663 1082.38 398.747 1081.75 393.676 1081.32C388.604 1080.89 383.481 1080.67 378.319 1080.67Z" fill="#571AFF"/>
</svg>
