<svg xmlns:xlink="http://www.w3.org/1999/xlink" xmlns="http://www.w3.org/2000/svg" width="151" height="228" viewBox="0 0 151 228" fill="none"><script xmlns="" src="chrome-extension://hoklmmgfnpapgjgcpechhaamimifchmp/frame_ant/frame_ant.js"/>
<path d="M29.4465 27.3923L71.5382 5.83252L42.4699 48.7437L7.15039 67.4913L29.4465 27.3923Z" fill="url(#paint0_linear_2589_1822)"/>
<path d="M4.43945 72.4912L37.1543 54.4727V168.312L4.43945 185.289V72.4912Z" fill="#A1F5D9"/>
<path d="M79.0391 149.981L108.732 137.691V168.521L79.0391 186.435V149.981Z" fill="url(#paint1_linear_2589_1822)"/>
<path d="M8.08789 188.413L39.8651 170.811L70.7046 188.413L39.8651 206.744L8.08789 188.413Z" fill="url(#paint2_linear_2589_1822)"/>
<path d="M47.1562 206.328L78.9334 188.726L109.773 206.328L78.9334 224.658L47.1562 206.328Z" fill="url(#paint3_linear_2589_1822)"/>
<path d="M78.4141 188.413L110.191 170.811L141.031 188.413L110.191 206.744L78.4141 188.413Z" fill="url(#paint4_linear_2589_1822)"/>
<path d="M111.963 138.94L147.387 153.209L145.095 186.434L111.963 170.29V138.94Z" fill="url(#paint5_linear_2589_1822)"/>
<path d="M42.2607 57.2835L75.0798 7.70654V185.184L42.2607 168.103V57.2835Z" fill="url(#paint6_linear_2589_1822)"/>
<path d="M0.709961 71.8595C0.709961 71.7298 0.768933 71.6355 0.886882 71.5765L39.7216 52.0586C39.9088 51.9679 40.1136 51.9208 40.3205 51.9208C40.5274 51.9208 40.731 51.9679 40.9158 52.0586L74.9762 0C75.2121 0.11791 78.515 1.61254 78.515 1.89553L79.1401 146.372C79.1395 146.463 79.1622 146.553 79.2062 146.632C79.2501 146.712 79.3137 146.779 79.391 146.827C79.4683 146.875 79.5565 146.902 79.6474 146.906C79.7382 146.91 79.8286 146.891 79.9098 146.85L109.279 131.754C109.614 131.581 109.984 131.49 110.361 131.486C110.737 131.483 111.109 131.569 111.446 131.736L149.786 150.431C149.879 150.476 149.957 150.547 150.012 150.634C150.067 150.722 150.096 150.823 150.095 150.926V189.412C150.095 189.572 150.051 189.728 149.969 189.864C149.886 190 149.768 190.11 149.626 190.182L76.274 227.889C75.9909 228.037 75.7049 228.037 75.4159 227.889L0.975346 189.616C0.80432 189.527 0.718806 189.386 0.718806 189.191C0.718806 143.138 0.709961 118.179 0.709961 71.8595ZM37.112 59.6107C37.1118 59.5075 37.0854 59.4061 37.0353 59.3159C36.9852 59.2256 36.913 59.1496 36.8256 59.0948C36.7381 59.04 36.6381 59.0083 36.535 59.0027C36.432 58.997 36.3292 59.0176 36.2362 59.0625L7.35344 73.6351C7.25025 73.6849 7.16317 73.7627 7.10215 73.8597C7.04114 73.9566 7.00866 74.0688 7.00844 74.1833V181.48C7.00934 181.582 7.03581 181.682 7.08542 181.771C7.13504 181.86 7.20622 181.936 7.29246 181.99C7.3787 182.045 7.47724 182.077 7.57907 182.083C7.6809 182.09 7.78277 182.071 7.87536 182.028L36.7493 168.639C36.8555 168.59 36.9453 168.512 37.008 168.413C37.0708 168.314 37.1038 168.199 37.1031 168.082L37.112 59.6107ZM43.4281 168.091C43.4281 168.216 43.4628 168.338 43.5284 168.445C43.5941 168.551 43.688 168.637 43.7997 168.693L71.5236 182.674C71.6254 182.725 71.7386 182.749 71.8524 182.744C71.9661 182.739 72.0769 182.706 72.1741 182.647C72.2714 182.587 72.352 182.505 72.4084 182.406C72.4649 182.307 72.4952 182.195 72.4967 182.081L72.8771 13.5949C72.878 13.4676 72.8427 13.3427 72.7753 13.2347C72.708 13.1267 72.6114 13.04 72.4967 12.9847C66.3175 22.5492 43.4458 56.6099 43.4458 56.6099L43.4281 168.091ZM114.454 140.306C114.374 140.267 114.286 140.248 114.198 140.253C114.109 140.257 114.023 140.284 113.948 140.331C113.873 140.378 113.811 140.443 113.768 140.521C113.725 140.598 113.702 140.686 113.702 140.774L113.72 168.135C113.721 168.234 113.749 168.33 113.802 168.413C113.856 168.496 113.931 168.562 114.021 168.604L143.036 182.382C143.115 182.419 143.203 182.436 143.29 182.43C143.377 182.425 143.462 182.397 143.536 182.351C143.61 182.304 143.671 182.239 143.713 182.163C143.756 182.087 143.778 182.001 143.779 181.913L143.788 155.056C143.788 154.959 143.761 154.863 143.709 154.78C143.658 154.697 143.584 154.631 143.496 154.588L114.454 140.306ZM106.846 168.737C106.989 168.665 107.109 168.555 107.194 168.419C107.278 168.284 107.323 168.127 107.324 167.967V141.499C107.323 141.352 107.285 141.207 107.212 141.079C107.14 140.95 107.036 140.843 106.91 140.765C106.784 140.688 106.641 140.645 106.494 140.639C106.346 140.632 106.2 140.664 106.068 140.73L79.6001 154.128C79.4573 154.199 79.3371 154.309 79.2528 154.445C79.1685 154.581 79.1234 154.737 79.1224 154.897V181.356C79.1233 181.504 79.1618 181.648 79.2342 181.777C79.3067 181.905 79.4107 182.013 79.5365 182.09C79.6622 182.167 79.8056 182.211 79.9529 182.217C80.1003 182.223 80.2468 182.192 80.3786 182.125L106.846 168.737ZM66.6759 189.085C66.838 189.005 66.9745 188.88 67.0699 188.726C67.1653 188.573 67.2158 188.395 67.2158 188.214C67.2158 188.033 67.1653 187.856 67.0699 187.702C66.9745 187.548 66.838 187.424 66.6759 187.343L40.7301 174.343C40.6002 174.278 40.4573 174.242 40.3119 174.239C40.1664 174.236 40.0222 174.266 39.8897 174.326L13.0061 186.759C12.8423 186.837 12.7032 186.958 12.6047 187.11C12.5061 187.262 12.452 187.438 12.4483 187.619C12.4446 187.801 12.4916 187.979 12.5839 188.135C12.6762 188.291 12.8102 188.418 12.9708 188.501L39.642 202.297C39.7782 202.368 39.9295 202.406 40.0832 202.408C40.237 202.409 40.3889 202.374 40.5266 202.306L66.6759 189.085ZM138.578 188.634C138.688 188.576 138.78 188.488 138.844 188.38C138.907 188.273 138.939 188.149 138.937 188.025C138.934 187.9 138.896 187.778 138.828 187.673C138.76 187.568 138.664 187.485 138.551 187.431L110.739 174.255C110.646 174.211 110.544 174.189 110.441 174.191C110.339 174.192 110.238 174.217 110.146 174.264L83.7755 187.591C83.6638 187.646 83.5697 187.732 83.504 187.838C83.4383 187.945 83.4035 188.067 83.4035 188.192C83.4035 188.317 83.4383 188.439 83.504 188.545C83.5697 188.652 83.6638 188.738 83.7755 188.793L111.013 202.545C111.107 202.593 111.212 202.618 111.318 202.618C111.424 202.618 111.529 202.593 111.623 202.545L138.578 188.634ZM75.814 191.933C75.6909 191.869 75.5544 191.836 75.4159 191.836C75.2774 191.836 75.1409 191.869 75.0178 191.933L48.6297 205.428C48.4887 205.501 48.3705 205.611 48.288 205.747C48.2055 205.882 48.1618 206.038 48.1618 206.197C48.1618 206.356 48.2055 206.511 48.288 206.647C48.3705 206.783 48.4887 206.893 48.6297 206.966L75.4336 220.647C75.5566 220.71 75.6931 220.744 75.8317 220.744C75.9702 220.744 76.1067 220.71 76.2297 220.647L102.618 207.161C102.759 207.088 102.877 206.977 102.96 206.842C103.042 206.706 103.086 206.55 103.086 206.391C103.086 206.233 103.042 206.077 102.96 205.941C102.877 205.806 102.759 205.695 102.618 205.622L75.814 191.933Z" fill="#1D2034"/>
<path fill-rule="evenodd" clip-rule="evenodd" d="M74.9762 0L26.8415 24.476L0.802612 71.7011C0.704137 71.8797 0.894489 72.0788 1.07739 71.9884L40.8451 52.3503L74.9762 0ZM68.5165 7.18658L31.4258 26.9757L9.12967 66.6581L37.3645 51.4517L68.5165 7.18658Z" fill="#1D2034"/>
<path d="M0.689453 71.8595C0.689453 71.7298 0.748425 71.6355 0.866374 71.5765L39.7011 52.0586C39.8883 51.9679 40.0931 51.9208 40.3 51.9208C40.5069 51.9208 40.7105 51.9679 40.8953 52.0586L74.9557 0C75.1916 0.11791 78.4945 1.61254 78.4945 1.89553L79.1196 146.372C79.119 146.463 79.1417 146.553 79.1856 146.632C79.2296 146.712 79.2932 146.779 79.3705 146.827C79.4477 146.875 79.536 146.902 79.6268 146.906C79.7177 146.91 79.808 146.891 79.8892 146.85L109.259 131.754C109.593 131.581 109.964 131.49 110.34 131.486C110.717 131.483 111.089 131.569 111.426 131.736L149.765 150.431C149.858 150.476 149.937 150.547 149.991 150.634C150.046 150.722 150.075 150.823 150.075 150.926V189.412C150.075 189.572 150.031 189.728 149.948 189.864C149.865 190 149.747 190.11 149.606 190.182L76.2535 227.889C75.9704 228.037 75.6844 228.037 75.3954 227.889L0.954838 189.616C0.783812 189.527 0.698298 189.386 0.698298 189.191C0.698298 143.138 0.689453 118.179 0.689453 71.8595ZM37.0915 59.6107C37.0913 59.5075 37.0649 59.4061 37.0148 59.3159C36.9647 59.2256 36.8925 59.1496 36.805 59.0948C36.7176 59.04 36.6176 59.0083 36.5145 59.0027C36.4115 58.997 36.3086 59.0176 36.2157 59.0625L7.33293 73.6351C7.22974 73.6849 7.14266 73.7627 7.08165 73.8597C7.02064 73.9566 6.98816 74.0688 6.98793 74.1833V181.48C6.98883 181.582 7.0153 181.682 7.06492 181.771C7.11453 181.86 7.18572 181.936 7.27195 181.99C7.35819 182.045 7.45673 182.077 7.55856 182.083C7.66039 182.09 7.76226 182.071 7.85485 182.028L36.7288 168.639C36.835 168.59 36.9248 168.512 36.9875 168.413C37.0503 168.314 37.0833 168.199 37.0826 168.082L37.0915 59.6107ZM43.4076 168.091C43.4076 168.216 43.4423 168.338 43.5079 168.445C43.5736 168.551 43.6675 168.637 43.7792 168.693L71.5031 182.674C71.6049 182.725 71.7181 182.749 71.8318 182.744C71.9456 182.739 72.0564 182.706 72.1536 182.647C72.2509 182.587 72.3315 182.505 72.3879 182.406C72.4443 182.307 72.4747 182.195 72.4762 182.081L72.8566 13.5949C72.8575 13.4676 72.8222 13.3427 72.7548 13.2347C72.6875 13.1267 72.5909 13.04 72.4762 12.9847C66.2969 22.5492 43.4253 56.6099 43.4253 56.6099L43.4076 168.091ZM114.434 140.306C114.354 140.267 114.266 140.248 114.177 140.253C114.089 140.257 114.003 140.284 113.927 140.331C113.852 140.378 113.79 140.443 113.747 140.521C113.704 140.598 113.682 140.686 113.682 140.774L113.699 168.135C113.7 168.234 113.729 168.33 113.782 168.413C113.835 168.496 113.911 168.562 114 168.604L143.016 182.382C143.095 182.419 143.182 182.436 143.269 182.43C143.357 182.425 143.441 182.397 143.515 182.351C143.589 182.304 143.65 182.239 143.693 182.163C143.735 182.087 143.758 182.001 143.759 181.913L143.767 155.056C143.768 154.959 143.74 154.863 143.689 154.78C143.637 154.697 143.563 154.631 143.476 154.588L114.434 140.306ZM106.826 168.737C106.969 168.665 107.089 168.555 107.173 168.419C107.258 168.284 107.303 168.127 107.304 167.967V141.499C107.303 141.352 107.264 141.207 107.192 141.079C107.119 140.95 107.015 140.843 106.89 140.765C106.764 140.688 106.62 140.645 106.473 140.639C106.326 140.632 106.179 140.664 106.047 140.73L79.5796 154.128C79.4368 154.199 79.3166 154.309 79.2323 154.445C79.148 154.581 79.1029 154.737 79.1019 154.897V181.356C79.1028 181.504 79.1413 181.648 79.2137 181.777C79.2861 181.905 79.3902 182.013 79.516 182.09C79.6417 182.167 79.7851 182.211 79.9324 182.217C80.0798 182.223 80.2263 182.192 80.3581 182.125L106.826 168.737ZM66.6554 189.085C66.8175 189.005 66.954 188.88 67.0494 188.726C67.1447 188.573 67.1953 188.395 67.1953 188.214C67.1953 188.033 67.1447 187.856 67.0494 187.702C66.954 187.548 66.8175 187.424 66.6554 187.343L40.7095 174.343C40.5797 174.278 40.4368 174.242 40.2914 174.239C40.1459 174.236 40.0017 174.266 39.8692 174.326L12.9856 186.759C12.8218 186.837 12.6827 186.958 12.5842 187.11C12.4856 187.262 12.4315 187.438 12.4278 187.619C12.4241 187.801 12.4711 187.979 12.5634 188.135C12.6557 188.291 12.7897 188.418 12.9502 188.501L39.6215 202.297C39.7577 202.368 39.9089 202.406 40.0627 202.408C40.2165 202.409 40.3684 202.374 40.5061 202.306L66.6554 189.085ZM138.557 188.634C138.668 188.576 138.76 188.488 138.823 188.38C138.887 188.273 138.919 188.149 138.916 188.025C138.913 187.9 138.876 187.778 138.808 187.673C138.74 187.568 138.644 187.485 138.531 187.431L110.718 174.255C110.625 174.211 110.524 174.189 110.421 174.191C110.318 174.192 110.217 174.217 110.125 174.264L83.755 187.591C83.6432 187.646 83.5492 187.732 83.4835 187.838C83.4178 187.945 83.383 188.067 83.383 188.192C83.383 188.317 83.4178 188.439 83.4835 188.545C83.5492 188.652 83.6432 188.738 83.755 188.793L110.992 202.545C111.087 202.593 111.192 202.618 111.298 202.618C111.404 202.618 111.508 202.593 111.603 202.545L138.557 188.634ZM75.7935 191.933C75.6704 191.869 75.5339 191.836 75.3954 191.836C75.2569 191.836 75.1204 191.869 74.9973 191.933L48.6092 205.428C48.4682 205.501 48.35 205.611 48.2675 205.747C48.1849 205.882 48.1413 206.038 48.1413 206.197C48.1413 206.356 48.1849 206.511 48.2675 206.647C48.35 206.783 48.4682 206.893 48.6092 206.966L75.4131 220.647C75.5361 220.71 75.6726 220.744 75.8112 220.744C75.9497 220.744 76.0862 220.71 76.2092 220.647L102.597 207.161C102.738 207.088 102.857 206.977 102.939 206.842C103.022 206.706 103.065 206.55 103.065 206.391C103.065 206.233 103.022 206.077 102.939 205.941C102.857 205.806 102.738 205.695 102.597 205.622L75.7935 191.933Z" fill="#1D2034"/>
<path fill-rule="evenodd" clip-rule="evenodd" d="M74.9557 0L26.821 24.476L0.782105 71.7011C0.683629 71.8797 0.873981 72.0788 1.05688 71.9884L40.8246 52.3503L74.9557 0ZM68.496 7.18658L31.4053 26.9757L9.10916 66.6581L37.344 51.4517L68.496 7.18658Z" fill="#1D2034"/>
<defs>
<linearGradient id="paint0_linear_2589_1822" x1="23.3175" y1="-0.108477" x2="29.2684" y2="63.8403" gradientUnits="userSpaceOnUse">
<stop offset="0.39" stop-color="#6679D7"/>
<stop offset="0.97" stop-color="#A3FFD6"/>
</linearGradient>
<linearGradient id="paint1_linear_2589_1822" x1="85.2117" y1="149.704" x2="89.7533" y2="186.939" gradientUnits="userSpaceOnUse">
<stop offset="0.39" stop-color="#F6DCAC"/>
<stop offset="0.97" stop-color="#8576FF"/>
</linearGradient>
<linearGradient id="paint2_linear_2589_1822" x1="39.3962" y1="170.811" x2="39.3962" y2="206.744" gradientUnits="userSpaceOnUse">
<stop stop-color="#6679D7"/>
<stop offset="1" stop-color="#36427A"/>
</linearGradient>
<linearGradient id="paint3_linear_2589_1822" x1="78.4646" y1="188.726" x2="78.4646" y2="224.658" gradientUnits="userSpaceOnUse">
<stop stop-color="#6679D7"/>
<stop offset="1" stop-color="#36427A"/>
</linearGradient>
<linearGradient id="paint4_linear_2589_1822" x1="109.722" y1="170.811" x2="109.722" y2="206.744" gradientUnits="userSpaceOnUse">
<stop stop-color="#6679D7"/>
<stop offset="1" stop-color="#36427A"/>
</linearGradient>
<linearGradient id="paint5_linear_2589_1822" x1="136.742" y1="132.081" x2="127.079" y2="185.968" gradientUnits="userSpaceOnUse">
<stop offset="0.39" stop-color="#F6DCAC"/>
<stop offset="0.97" stop-color="#8576FF"/>
</linearGradient>
<linearGradient id="paint6_linear_2589_1822" x1="65.2178" y1="-17.9245" x2="-33.4773" y2="118.54" gradientUnits="userSpaceOnUse">
<stop offset="0.39" stop-color="#6679D7"/>
<stop offset="0.97" stop-color="#A3FFD6"/>
</linearGradient>
</defs>
</svg>