<svg width="75" height="32" viewBox="0 0 75 32" fill="none" xmlns="http://www.w3.org/2000/svg">
<g clip-path="url(#clip0_1491_21892)">
<path d="M33.3455 21.7533C32.0918 21.7712 30.8567 21.4481 29.7702 20.8178C28.7601 20.2237 27.9263 19.3677 27.3559 18.3391C26.7385 17.2414 26.4183 15.9995 26.4272 14.738C26.4152 13.3962 26.6513 12.064 27.1237 10.8094C27.5603 9.68319 28.2065 8.6515 29.0274 7.76947C29.8496 6.88581 30.8458 6.18499 31.9525 5.71168C33.0767 5.20032 34.2941 4.92952 35.5277 4.91656C36.7964 4.89473 38.0475 5.21787 39.1492 5.85197C40.1527 6.43955 40.9728 7.2981 41.5172 8.33072C42.1258 9.51434 42.4291 10.8331 42.3993 12.1657H38.3135C38.3025 11.4847 38.1441 10.8143 37.8492 10.2015C37.6154 9.70196 37.2449 9.28009 36.7812 8.98543C36.2717 8.69618 35.6943 8.5508 35.1098 8.56447C34.4607 8.55427 33.8204 8.71557 33.2525 9.03226C32.7039 9.34783 32.2288 9.77838 31.8597 10.2951C31.4468 10.8608 31.1328 11.4936 30.931 12.1657C30.7033 12.9556 30.5938 13.7752 30.6061 14.5977C30.5791 15.2422 30.7065 15.8838 30.9775 16.4683C31.226 16.9727 31.6128 17.3946 32.0918 17.6844C32.5841 17.9743 33.147 18.1201 33.7169 18.1053C34.6534 18.1205 35.5625 17.7874 36.2706 17.1699C37.041 16.4639 37.6033 15.5577 37.8956 14.5508H42.0279C41.6905 15.9402 41.0743 17.2454 40.2171 18.3858C39.432 19.4343 38.4145 20.2832 37.2455 20.8646C36.0464 21.457 34.7274 21.7612 33.3918 21.7533H33.3454H33.3455ZM52.9392 21.426H57.0714L54.2392 5.24409H49.7819L41.0993 21.426H45.4638L46.996 18.3391H52.4748L52.9391 21.426H52.9392ZM48.6676 15.1121L51.3141 9.82726L52.057 15.1121H48.6676ZM65.3361 21.426H59.068L61.9003 5.24409H67.7969C69.0443 5.2293 70.2748 5.53507 71.3722 6.13275C72.3741 6.67523 73.2091 7.48399 73.7865 8.47101C74.4067 9.53363 74.7278 10.7462 74.7152 11.9787C74.7128 13.2779 74.4605 14.5644 73.9722 15.767C73.5409 16.8861 72.8855 17.9038 72.0467 18.7567C71.208 19.6096 70.204 20.2794 69.097 20.7244C67.9003 21.2014 66.6231 21.4397 65.3361 21.4261V21.426ZM65.3361 8.84524L63.7576 17.8248H65.7076C66.3798 17.8241 67.0442 17.6806 67.6577 17.4038C68.2454 17.1499 68.769 16.7664 69.1897 16.2813C69.6133 15.7568 69.9289 15.1527 70.1185 14.5042C70.3646 13.7495 70.4901 12.9602 70.49 12.1658C70.4985 11.5478 70.3549 10.9371 70.072 10.3886C69.8077 9.90408 69.4026 9.5124 68.9112 9.26621C68.35 8.98094 67.7288 8.83647 67.1005 8.84524H65.3361Z" fill="#626262"/>
<path d="M35.206 28.767L33.9611 25.9486L33.4631 28.767H32.6885L33.4078 24.7604H34.2931L35.4827 27.4683L35.953 24.7604H36.7277L36.036 28.767H35.206ZM41.818 28.0486L41.7074 28.767H39.0515L39.7708 24.7604H42.3714L42.2607 25.4789H40.4902L40.3518 26.3631H41.9287L41.818 27.0539H40.2135L40.0475 28.0487H41.818V28.0486ZM46.2997 28.767H45.4698L46.0785 25.5065H44.8334L44.9717 24.7604H48.2363L48.098 25.5065H46.8806L46.2996 28.767H46.2997ZM53.2159 28.767L52.9946 25.9486L51.7773 28.767H50.9196L50.6429 24.7604H51.4454L51.5837 27.5235L52.7733 24.7604H53.5756L53.7693 27.5235L54.8759 24.7604H55.7336L54.0184 28.767H53.216H53.2159ZM59.5236 28.85C59.2045 28.8639 58.8879 28.7873 58.6106 28.6288C58.3577 28.4832 58.1478 28.2735 58.0019 28.0209C57.8485 27.7419 57.7723 27.4272 57.7806 27.1091C57.7827 26.7773 57.8485 26.449 57.9743 26.142C58.0875 25.8538 58.2568 25.5908 58.4723 25.3683C58.6861 25.155 58.94 24.986 59.2193 24.8709C59.5068 24.7439 59.8178 24.678 60.1322 24.6775C60.4421 24.6685 60.7484 24.745 61.0175 24.8985C61.2705 25.0441 61.4804 25.2538 61.6262 25.5064C61.7796 25.7854 61.8559 26.1001 61.8475 26.4183C61.8461 26.7501 61.7804 27.0785 61.6539 27.3853C61.5476 27.6707 61.388 27.9333 61.1836 28.1591C60.9814 28.3804 60.7368 28.559 60.4643 28.6841C60.1657 28.8046 59.8453 28.8611 59.5236 28.85ZM59.5789 28.1315C59.7718 28.1298 59.9613 28.0824 60.1322 27.9933C60.3132 27.9089 60.4736 27.7863 60.6026 27.634C60.7281 27.4685 60.8219 27.2811 60.8791 27.0814C60.9491 26.8766 60.9864 26.6622 60.9898 26.4459C60.9978 26.2555 60.96 26.0659 60.8791 25.8933C60.8045 25.7448 60.6895 25.6202 60.5472 25.534C60.3974 25.4425 60.2248 25.3946 60.0492 25.3958C59.8564 25.3975 59.6668 25.4449 59.4959 25.534C59.325 25.6218 59.1742 25.744 59.0533 25.8933C58.9173 26.0563 58.8141 26.2439 58.749 26.4459C58.6791 26.6507 58.6417 26.8651 58.6383 27.0814C58.6292 27.2719 58.6671 27.4618 58.749 27.634C58.8236 27.7826 58.9386 27.9071 59.0809 27.9933C59.2308 28.0849 59.4033 28.1327 59.5789 28.1315ZM65.1119 28.767H64.2819L65.0012 24.7604H66.5228C66.7699 24.7524 67.0156 24.7996 67.2422 24.8986C67.4219 24.9852 67.5748 25.119 67.6848 25.2854C67.8011 25.4663 67.8591 25.6785 67.8508 25.8934C67.8603 26.1017 67.8225 26.3095 67.7401 26.5012C67.6482 26.6774 67.5154 26.829 67.3528 26.9433C67.16 27.0746 66.944 27.1684 66.7164 27.2197L67.5188 28.767H66.6057L65.8864 27.3579H65.3608L65.1118 28.767H65.1119ZM65.7206 25.4513L65.4993 26.6394H66.1632C66.3221 26.6506 66.4816 26.6318 66.6335 26.5842C66.7477 26.5293 66.8436 26.4431 66.9102 26.3355C66.9924 26.2329 67.0407 26.1074 67.0486 25.9762C67.0496 25.901 67.0327 25.8266 66.9989 25.7593C66.9653 25.692 66.9158 25.6337 66.8549 25.5894C66.7087 25.4897 66.5336 25.4411 66.3568 25.4513H65.7206ZM71.0875 28.767H70.2576L70.9769 24.7604H71.8068L71.5025 26.5288L73.1625 24.7604H74.1584L72.2218 26.7775L73.4115 28.7669H72.4709L71.4196 26.9432L71.0875 28.7669V28.767Z" fill="#626262"/>
<path fill-rule="evenodd" clip-rule="evenodd" d="M1.23113 0.73963H6.97936C7.41294 0.73963 8.01556 1.09339 8.31867 1.52599L10.5508 4.71202V4.70885L18.4726 16.007L9.78046 28.3568V28.3439L8.3193 30.4295C8.01632 30.8621 7.41354 31.2158 6.97999 31.2158H1.23174C0.809369 31.2158 0.697228 30.8799 0.972048 30.4626L11.1475 15.9777L0.962949 1.48011C0.698826 1.06874 0.812935 0.73963 1.23113 0.73963ZM24.4436 0.73963H30.1918C30.6254 0.73963 30.7322 1.09339 30.4292 1.52599L30.0813 2.02252L20.2775 15.9777L30.0724 29.9204L30.4292 30.4295C30.7322 30.8621 30.6254 31.2158 30.1918 31.2158H24.4436C24.01 31.2158 23.4074 30.8621 23.1043 30.4295L21.9884 28.8368H21.9782L16.198 20.6244L19.448 16.007L16.198 11.3718L22.7537 2.02252H22.7564L23.1043 1.52599C23.4074 1.09339 24.01 0.73963 24.4436 0.73963Z" fill="#626262"/>
</g>
<defs>
<clipPath id="clip0_1491_21892">
<rect width="75" height="32" fill="white"/>
</clipPath>
</defs>
</svg>
