<svg width="1080" height="1080" viewBox="0 0 1080 1080" fill="none" xmlns="http://www.w3.org/2000/svg">
<g clip-path="url(#clip0_1171_11642)">
<path d="M725.787 651.447L615.045 540.511L725.787 429.574L798.246 356.964C740.875 276.507 646.843 224 540.489 224C434.135 224 340.125 276.507 282.732 356.942L355.191 429.553L465.933 540.489L355.191 651.426L282.732 724.036C340.125 804.472 434.135 856.978 540.489 856.978C646.843 856.978 740.854 804.472 798.246 724.036L725.787 651.426V651.447ZM429.942 355.04C462.28 335.715 500.066 324.539 540.489 324.539C580.912 324.539 618.698 335.715 651.037 355.04L540.489 465.804L429.942 355.04ZM429.942 725.96L540.489 615.196L651.037 725.96C618.698 745.285 580.912 756.461 540.489 756.461C500.066 756.461 462.28 745.285 429.942 725.96Z" fill="white"/>
<path d="M324.539 540.489C324.539 507.135 332.105 475.553 345.615 447.365L271.751 373.371C241.509 421.879 224 479.12 224 540.489C224 601.859 241.509 659.1 271.751 707.608L345.615 633.614C332.105 605.404 324.539 573.822 324.539 540.489Z" fill="white"/>
<path d="M809.249 373.371L735.385 447.365C748.895 475.575 756.461 507.156 756.461 540.489C756.461 573.822 748.895 605.426 735.385 633.614L809.227 707.608C839.469 659.1 856.978 601.837 856.978 540.489C856.978 479.141 839.469 421.879 809.227 373.371H809.249Z" fill="white"/>
</g>
<defs>
<clipPath id="clip0_1171_11642">
<rect width="633" height="633" fill="white" transform="translate(224 224)"/>
</clipPath>
</defs>
</svg>
